<?xml version="1.0" encoding="utf-8"?>
<!-- Generator: Adobe Illustrator 25.0.1, SVG Export Plug-In . SVG Version: 6.00 Build 0)  -->
<svg version="1.1" id="Layer_1" xmlns="http://www.w3.org/2000/svg" xmlns:xlink="http://www.w3.org/1999/xlink" x="0px" y="0px"
	 viewBox="0 0 512 512" style="enable-background:new 0 0 512 512;" xml:space="preserve">
<path d="M478.3,167c-0.2,36.5-10.6,63.5-26.1,89c-16.2,26.6-36,50.6-58.2,72.3c-37.4,36.5-75.9,72-113.9,107.9
	c-6.3,5.9-12.8,11.7-19.1,17.7c-3.2,3-6.3,3.3-9.6,0.2c-44.4-41.8-89.2-83.1-133-125.6c-23.7-23-44.6-48.6-61.3-77.3
	c-16.1-27.7-25.6-57.3-22.8-89.6c4.2-48.8,37-88.9,83.7-101.1c47.3-12.3,88,1.1,122.6,34.9c2.1,2.1,4.2,4.3,6.4,6.3
	c5.7,5.2,13.5,5.2,18.8-0.4c12-12.7,25.3-23.5,40.8-31.7C351.7,45.6,408,53.6,444.4,89.3C466.2,110.6,478.7,141.7,478.3,167z"/>
</svg>
