<svg id="Layer_1" data-name="Layer 1" xmlns="http://www.w3.org/2000/svg" viewBox="0 0 4362.92 781.79"><defs><style>.cls-1{fill:#912827;}</style></defs><path class="cls-1" d="M238.7,677.54a66.33,66.33,0,1,1-2.31-17.44A66.36,66.36,0,0,1,238.7,677.54Z"/><path class="cls-1" d="M564.68,744.06a354.51,354.51,0,0,1-92.74-12.3C351.56,699.09,256.48,604,223.81,483.62a355.7,355.7,0,0,1,0-185.46C256.48,177.78,351.56,82.7,472,50a355.7,355.7,0,0,1,185.46,0C777.79,82.7,872.87,177.78,905.54,298.16a355.73,355.73,0,0,1,0,185.47C872.87,604,777.79,699.09,657.41,731.76A354.49,354.49,0,0,1,564.68,744.06ZM284.61,390.89a279.8,279.8,0,1,0,9.76-73.52,280.64,280.64,0,0,0-9.76,73.52"/><path class="cls-1" d="M768.11,390.56A203.23,203.23,0,1,1,761,337.14,203.64,203.64,0,0,1,768.11,390.56Z"/><path class="cls-1" d="M1027.93,711.54V626.21h55.52v5.53h-49.39v33.89H1076v5.29h-41.94v40.62Z"/><path class="cls-1" d="M1131.52,712.14a35.71,35.71,0,0,1-16.23-3.67,40.29,40.29,0,0,1-12.61-9.79,45.9,45.9,0,0,1-11.06-29.8,44.76,44.76,0,0,1,11.48-30.11,41.48,41.48,0,0,1,12.73-9.61,35.65,35.65,0,0,1,15.81-3.55,35.22,35.22,0,0,1,16.28,3.73,40.52,40.52,0,0,1,12.56,10,47.12,47.12,0,0,1,8.17,13.94,44.27,44.27,0,0,1,2.88,15.63,45.07,45.07,0,0,1-3,16.4,44.41,44.41,0,0,1-8.47,13.82,40.56,40.56,0,0,1-12.74,9.55A36,36,0,0,1,1131.52,712.14Zm-33.77-43.26A40.24,40.24,0,0,0,1107.3,695a34.22,34.22,0,0,0,10.7,8.42,31.23,31.23,0,0,0,27.46-.12,34,34,0,0,0,10.69-8.66,39.48,39.48,0,0,0,6.79-12.07,41,41,0,0,0-.12-27.7,38.19,38.19,0,0,0-7-12,34.69,34.69,0,0,0-10.75-8.41,29.26,29.26,0,0,0-13.4-3.13,29.69,29.69,0,0,0-13.94,3.25,33.11,33.11,0,0,0-10.64,8.65,42.23,42.23,0,0,0-6.85,12.08A39.09,39.09,0,0,0,1097.75,668.88Z"/><path class="cls-1" d="M1188,711.54V626.21h35.45a21.9,21.9,0,0,1,10,2.29,25.44,25.44,0,0,1,7.81,6.07,28.86,28.86,0,0,1,5.17,8.47,25.83,25.83,0,0,1,1.86,9.61,28.32,28.32,0,0,1-2.52,11.9,25.57,25.57,0,0,1-7,9.25,20.59,20.59,0,0,1-10.51,4.57l21.27,33.17h-7.09l-20.67-32.21h-27.64v32.21Zm6.13-37.86h29.92a15.79,15.79,0,0,0,9.61-3,19.79,19.79,0,0,0,6.31-7.81,24.1,24.1,0,0,0,2.22-10.22,21.16,21.16,0,0,0-2.58-10.27,21.85,21.85,0,0,0-6.85-7.69,16.38,16.38,0,0,0-9.55-3h-29.08Z"/><path class="cls-1" d="M1346.5,640.39a25.66,25.66,0,0,0-4.56-4,27.81,27.81,0,0,0-5.41-2.89,32.69,32.69,0,0,0-6.25-1.74,41.17,41.17,0,0,0-7.21-.6q-12.51,0-18.21,4.74a15.77,15.77,0,0,0-5.71,12.78q0,5.4,2.59,8.58t8.11,5.1a115.5,115.5,0,0,0,14.3,3.72,103.89,103.89,0,0,1,16,4.5,24.52,24.52,0,0,1,10.4,7q3.66,4.44,3.66,12a21.61,21.61,0,0,1-2.16,9.9,18.47,18.47,0,0,1-6.25,7,30.91,30.91,0,0,1-9.67,4.2,49.94,49.94,0,0,1-12.44,1.44,54,54,0,0,1-12.62-1.44,49.5,49.5,0,0,1-11.3-4.21,43.86,43.86,0,0,1-9.85-7.09l3.25-4.93a32.7,32.7,0,0,0,5.94,5.11,38.84,38.84,0,0,0,7.21,3.79,48.41,48.41,0,0,0,8.36,2.46,46.44,46.44,0,0,0,9.25.9q11.17,0,17.48-4.14t6.31-12.29a13.84,13.84,0,0,0-2.88-9.12q-2.88-3.48-8.89-5.7a111.13,111.13,0,0,0-15-4.14,105.82,105.82,0,0,1-15.32-4.33,21.18,21.18,0,0,1-9.49-6.47q-3.18-4.08-3.19-11a22,22,0,0,1,3.79-13,23.32,23.32,0,0,1,10.63-8.1,41.92,41.92,0,0,1,15.75-2.76,45.63,45.63,0,0,1,10.27,1.09,33.27,33.27,0,0,1,8.77,3.3,35.64,35.64,0,0,1,7.52,5.59Z"/><path class="cls-1" d="M1403.58,712.14a35.67,35.67,0,0,1-16.22-3.67,40.33,40.33,0,0,1-12.62-9.79,46,46,0,0,1-11-29.8,44.82,44.82,0,0,1,11.47-30.11,41.52,41.52,0,0,1,12.74-9.61,35.64,35.64,0,0,1,15.8-3.55,35.26,35.26,0,0,1,16.29,3.73,40.64,40.64,0,0,1,12.56,10,47.33,47.33,0,0,1,8.17,13.94,44.27,44.27,0,0,1,2.88,15.63,45.07,45.07,0,0,1-3,16.4,44.6,44.6,0,0,1-8.47,13.82,40.67,40.67,0,0,1-12.74,9.55A36,36,0,0,1,1403.58,712.14Zm-33.76-43.26a40.24,40.24,0,0,0,9.55,26.07,34.1,34.1,0,0,0,10.7,8.42,31.21,31.21,0,0,0,27.45-.12,34.05,34.05,0,0,0,10.7-8.66,39.48,39.48,0,0,0,6.79-12.07,41.17,41.17,0,0,0-.12-27.7,38.38,38.38,0,0,0-7-12,34.73,34.73,0,0,0-10.76-8.41,29.2,29.2,0,0,0-13.4-3.13,29.75,29.75,0,0,0-13.94,3.25,33.18,33.18,0,0,0-10.63,8.65,42,42,0,0,0-6.85,12.08A39.09,39.09,0,0,0,1369.82,668.88Z"/><path class="cls-1" d="M1460.06,711.54V626.21h55.52v5.53h-49.39v33.89h41.94v5.29h-41.94v40.62Z"/><path class="cls-1" d="M1591.05,631.74h-31.24v79.8h-6.13v-79.8h-31.25v-5.53h68.62Z"/><path class="cls-1" d="M1637,626.82h6l12.73,31,12.74-31h6l-15,35.93,17.9,41.58L1710,626.21h6.73l-36.53,85.33h-5.65l-18.75-43.87L1637,711.54h-5.65l-36.41-85.33h6.61l32.8,78.12L1652,662.75Z"/><path class="cls-1" d="M1749.2,626.21h5.29l36,85.33h-6.49l-11.63-28.12h-41.23l-11.67,28.12h-6.61Zm21.13,52.16-18.49-44.7-18.55,44.7Z"/><path class="cls-1" d="M1803.52,711.54V626.21H1839a21.9,21.9,0,0,1,10,2.29,25.44,25.44,0,0,1,7.81,6.07A28.86,28.86,0,0,1,1862,643a25.83,25.83,0,0,1,1.86,9.61,28.32,28.32,0,0,1-2.52,11.9,25.57,25.57,0,0,1-7,9.25,20.63,20.63,0,0,1-10.52,4.57L1865,711.54H1858l-20.67-32.21h-27.64v32.21Zm6.12-37.86h29.93a15.79,15.79,0,0,0,9.61-3,19.87,19.87,0,0,0,6.31-7.81,24.1,24.1,0,0,0,2.22-10.22,21.16,21.16,0,0,0-2.58-10.27,21.85,21.85,0,0,0-6.85-7.69,16.38,16.38,0,0,0-9.55-3h-29.09Z"/><path class="cls-1" d="M1938.35,706v5.53h-56.84V626.21h55.76v5.53h-49.63v33.53H1931v5.29h-43.38V706Z"/><path class="cls-1" d="M1985.94,711.54V626.21h28.36q13.58,0,22.53,5.71a35.88,35.88,0,0,1,13.46,15.39,50.21,50.21,0,0,1,4.5,21.45q0,13-4.92,22.59a35.61,35.61,0,0,1-14.06,14.9q-9.13,5.29-21.51,5.29Zm62.73-42.78a43.8,43.8,0,0,0-4-19.11A30.76,30.76,0,0,0,2033,636.49q-7.62-4.74-18.68-4.75h-22.24V706h22.24q11.17,0,18.86-4.93a30.88,30.88,0,0,0,11.6-13.4A44.71,44.71,0,0,0,2048.67,668.76Z"/><path class="cls-1" d="M2128.46,706v5.53h-56.84V626.21h55.76v5.53h-49.63v33.53h43.38v5.29h-43.38V706Z"/><path class="cls-1" d="M2142.28,626.21l32.45,77.64,32.44-77.64h6.49l-35.93,85.33h-5.89l-36.05-85.33Z"/><path class="cls-1" d="M2283.6,706v5.53h-56.84V626.21h55.76v5.53h-49.63v33.53h43.38v5.29h-43.38V706Z"/><path class="cls-1" d="M2300.31,711.54V626.21h6.13V706h50.95v5.53Z"/><path class="cls-1" d="M2399.93,712.14a35.64,35.64,0,0,1-16.22-3.67,40.22,40.22,0,0,1-12.62-9.79,46,46,0,0,1-11.06-29.8,44.89,44.89,0,0,1,11.48-30.11,41.4,41.4,0,0,1,12.74-9.61,35.58,35.58,0,0,1,15.8-3.55,35.22,35.22,0,0,1,16.28,3.73,40.52,40.52,0,0,1,12.56,10,46.9,46.9,0,0,1,8.17,13.94,44.06,44.06,0,0,1,2.89,15.63,45.08,45.08,0,0,1-3,16.4,44.22,44.22,0,0,1-8.47,13.82,40.56,40.56,0,0,1-12.74,9.55A36,36,0,0,1,2399.93,712.14Zm-33.77-43.26a40.32,40.32,0,0,0,9.56,26.07,34.06,34.06,0,0,0,10.69,8.42,31.23,31.23,0,0,0,27.46-.12,34.16,34.16,0,0,0,10.7-8.66,39.69,39.69,0,0,0,6.79-12.07,41,41,0,0,0,2.34-13.64,40.37,40.37,0,0,0-2.47-14.06,38.19,38.19,0,0,0-7-12,34.69,34.69,0,0,0-10.75-8.41,29.23,29.23,0,0,0-13.4-3.13,29.69,29.69,0,0,0-13.94,3.25,33.22,33.22,0,0,0-10.64,8.65,42.46,42.46,0,0,0-6.85,12.08A39.09,39.09,0,0,0,2366.16,668.88Z"/><path class="cls-1" d="M2456.41,711.54V626.21h35.09a21.68,21.68,0,0,1,9.92,2.29,26.41,26.41,0,0,1,7.87,6.07,28.62,28.62,0,0,1,5.23,8.47,25.83,25.83,0,0,1,1.86,9.61,28.16,28.16,0,0,1-3.07,12.92,27,27,0,0,1-8.41,9.92,21.15,21.15,0,0,1-12.68,3.84h-29.68v32.21Zm6.13-37.86H2492a16,16,0,0,0,9.74-3,19.48,19.48,0,0,0,6.25-7.81,24.66,24.66,0,0,0,2.16-10.22,21.72,21.72,0,0,0-9.44-18,16.42,16.42,0,0,0-9.43-2.89h-28.72Z"/><path class="cls-1" d="M2608.31,711.54V638.11l-33.53,57.44h-4.09l-33.53-57.44v73.43H2531V626.21h6.12l35.58,61,35.57-61h6.13v85.33Z"/><path class="cls-1" d="M2693.63,706v5.53h-56.84V626.21h55.76v5.53h-49.63v33.53h43.38v5.29h-43.38V706Z"/><path class="cls-1" d="M2716.46,637.63v73.91h-6.13V626.21h5.05l59.49,75.11V626.21H2781v85.33h-6Z"/><path class="cls-1" d="M2862.83,631.74h-31.24v79.8h-6.13v-79.8h-31.25v-5.53h68.62Z"/><path class="cls-1" d="M2962.09,711.54l-43.26-45.45q-5.16-5.46-8.29-9.32a29.7,29.7,0,0,1-4.45-7,15.69,15.69,0,0,1,1.44-15.19,19.72,19.72,0,0,1,7.52-6.53,23,23,0,0,1,10.63-2.44,22.62,22.62,0,0,1,9.86,2.08,16.77,16.77,0,0,1,6.78,5.7,14.45,14.45,0,0,1,2.47,8.37,15.43,15.43,0,0,1-3.07,9.31,36.91,36.91,0,0,1-8,7.9q-5,3.67-10.63,7.35-5.05,3.43-9.44,6.94a31.71,31.71,0,0,0-7,7.52,16.79,16.79,0,0,0-2.58,9.25,14.09,14.09,0,0,0,3.24,9.48,20.53,20.53,0,0,0,8.24,5.75,27.65,27.65,0,0,0,10.15,2,25.82,25.82,0,0,0,12.5-3.06,31.13,31.13,0,0,0,9.79-8.42,39.54,39.54,0,0,0,6.37-12.19,46.53,46.53,0,0,0,2.23-14.42h5.28a49,49,0,0,1-2.7,16.34,44.94,44.94,0,0,1-7.63,13.7,36.81,36.81,0,0,1-11.66,9.49,33.47,33.47,0,0,1-28.12.76,24.33,24.33,0,0,1-9.85-7.72,19.23,19.23,0,0,1-3.73-11.87,20.11,20.11,0,0,1,3-11,33.93,33.93,0,0,1,7.93-8.61q4.92-3.85,10.45-7.54,5.89-3.78,10.34-7a33.71,33.71,0,0,0,6.91-6.52,11.46,11.46,0,0,0,2.46-7.05,10.27,10.27,0,0,0-3.9-8.23,14.82,14.82,0,0,0-9.8-3.26,16.52,16.52,0,0,0-7.75,1.78,14.2,14.2,0,0,0-5.41,4.74,11.08,11.08,0,0,0-1,10.84,26.41,26.41,0,0,0,3.73,5.8q2.76,3.49,8,8.94l47,48.9Z"/><path class="cls-1" d="M3007.16,668.15a44.68,44.68,0,0,1,2.7-15.2,45.19,45.19,0,0,1,7.87-13.7,38.74,38.74,0,0,1,12.68-9.91,38.08,38.08,0,0,1,17.13-3.73q11.41,0,19.46,5.23a33,33,0,0,1,12,13.4l-5.05,2.88a27.35,27.35,0,0,0-16.82-14.36,35.3,35.3,0,0,0-10.09-1.5,30.91,30.91,0,0,0-14.37,3.25,32.34,32.34,0,0,0-10.63,8.65,38.73,38.73,0,0,0-6.55,12,41.6,41.6,0,0,0-2.22,13.33,39.33,39.33,0,0,0,2.64,14.37A40.49,40.49,0,0,0,3023.2,695a35.51,35.51,0,0,0,10.82,8.42,29.32,29.32,0,0,0,13.4,3.12,33.87,33.87,0,0,0,10.51-1.74,32.82,32.82,0,0,0,10-5.41,27.06,27.06,0,0,0,7.57-9.55l5.28,2.52a28,28,0,0,1-8.29,10.82,39.75,39.75,0,0,1-12.26,6.72,41.07,41.07,0,0,1-13.33,2.29,34.27,34.27,0,0,1-16-3.79,41.37,41.37,0,0,1-12.68-10.09,46.54,46.54,0,0,1-8.23-14.18A46.07,46.07,0,0,1,3007.16,668.15Z"/><path class="cls-1" d="M3129.13,712.14a35.67,35.67,0,0,1-16.22-3.67,40.33,40.33,0,0,1-12.62-9.79,46,46,0,0,1-11.05-29.8,44.82,44.82,0,0,1,11.47-30.11,41.52,41.52,0,0,1,12.74-9.61,37.19,37.19,0,0,1,32.09.18,40.48,40.48,0,0,1,12.55,10,47.15,47.15,0,0,1,8.18,13.94,44.27,44.27,0,0,1,2.88,15.63,45.07,45.07,0,0,1-3,16.4,44.44,44.44,0,0,1-8.48,13.82,40.52,40.52,0,0,1-12.73,9.55A36,36,0,0,1,3129.13,712.14Zm-33.77-43.26a40.32,40.32,0,0,0,9.56,26.07,34.18,34.18,0,0,0,10.69,8.42,29.87,29.87,0,0,0,13.64,3.12,29.55,29.55,0,0,0,13.82-3.24,34.05,34.05,0,0,0,10.7-8.66,39.48,39.48,0,0,0,6.79-12.07,41.17,41.17,0,0,0-.12-27.7,38.38,38.38,0,0,0-7-12,34.73,34.73,0,0,0-10.76-8.41,29.23,29.23,0,0,0-13.4-3.13,29.75,29.75,0,0,0-13.94,3.25,33.18,33.18,0,0,0-10.63,8.65,42,42,0,0,0-6.85,12.08A39.1,39.1,0,0,0,3095.36,668.88Z"/><path class="cls-1" d="M3262.88,711.54V638.11l-33.52,57.44h-4.09l-33.53-57.44v73.43h-6.13V626.21h6.13l35.57,61,35.57-61H3269v85.33Z"/><path class="cls-1" d="M3291.36,711.54V626.21h35.09a21.68,21.68,0,0,1,9.92,2.29,26.29,26.29,0,0,1,7.87,6.07,28.42,28.42,0,0,1,5.23,8.47,25.83,25.83,0,0,1,1.86,9.61,28.28,28.28,0,0,1-3.06,12.92,27.06,27.06,0,0,1-8.42,9.92,21.14,21.14,0,0,1-12.67,3.84h-29.69v32.21Zm6.13-37.86h29.45a16,16,0,0,0,9.73-3,19.39,19.39,0,0,0,6.25-7.81,24.66,24.66,0,0,0,2.16-10.22,21.68,21.68,0,0,0-9.43-18,16.45,16.45,0,0,0-9.44-2.89h-28.72Z"/><path class="cls-1" d="M3400.36,712.14q-10.21,0-17.06-3.61a29,29,0,0,1-10.94-9.79,42.66,42.66,0,0,1-5.89-13.88,68.9,68.9,0,0,1-1.8-15.74V626.21h6.13v42.91a65.36,65.36,0,0,0,1.44,13.7,37.65,37.65,0,0,0,4.75,12.07,23.8,23.8,0,0,0,9,8.48q5.7,3.12,14.24,3.12t14.36-3.24a24.74,24.74,0,0,0,9-8.6,36.68,36.68,0,0,0,4.69-12,66.63,66.63,0,0,0,1.38-13.52V626.21h6.13v42.91A69.55,69.55,0,0,1,3434,685.4a40.11,40.11,0,0,1-6.07,13.76,29.85,29.85,0,0,1-10.94,9.49Q3410.22,712.15,3400.36,712.14Z"/><path class="cls-1" d="M3516.45,631.74H3485.2v79.8h-6.13v-79.8h-31.24v-5.53h68.62Z"/><path class="cls-1" d="M3586.51,706v5.53h-56.85V626.21h55.77v5.53h-49.64v33.53h43.39v5.29h-43.39V706Z"/><path class="cls-1" d="M3603.21,711.54V626.21h35.45a21.94,21.94,0,0,1,10,2.29,25.67,25.67,0,0,1,7.81,6.07,29.29,29.29,0,0,1,5.17,8.47,25.83,25.83,0,0,1,1.86,9.61,28.18,28.18,0,0,1-2.53,11.9,25.46,25.46,0,0,1-7,9.25,20.59,20.59,0,0,1-10.51,4.57l21.27,33.17h-7.09L3637,679.33h-27.64v32.21Zm6.13-37.86h29.92a15.82,15.82,0,0,0,9.62-3,20,20,0,0,0,6.31-7.81,24.1,24.1,0,0,0,2.22-10.22,21.06,21.06,0,0,0-2.59-10.27,21.82,21.82,0,0,0-6.84-7.69,16.41,16.41,0,0,0-9.56-3h-29.08Z"/><path class="cls-1" d="M3761.72,640.39a26.08,26.08,0,0,0-4.57-4,27.52,27.52,0,0,0-5.41-2.89,32.49,32.49,0,0,0-6.25-1.74,41,41,0,0,0-7.21-.6q-12.5,0-18.2,4.74a15.74,15.74,0,0,0-5.71,12.78q0,5.4,2.58,8.58t8.11,5.1a116.46,116.46,0,0,0,14.3,3.72,104.37,104.37,0,0,1,16,4.5,24.48,24.48,0,0,1,10.39,7q3.68,4.44,3.67,12a21.49,21.49,0,0,1-2.17,9.9,18.44,18.44,0,0,1-6.24,7,31,31,0,0,1-9.68,4.2,49.82,49.82,0,0,1-12.44,1.44,53.91,53.91,0,0,1-12.61-1.44,49.32,49.32,0,0,1-11.3-4.21,43.92,43.92,0,0,1-9.86-7.09l3.25-4.93a32.43,32.43,0,0,0,5.95,5.11,38.22,38.22,0,0,0,7.21,3.79,48.3,48.3,0,0,0,8.35,2.46,46.51,46.51,0,0,0,9.25.9q11.18,0,17.49-4.14t6.31-12.29a13.79,13.79,0,0,0-2.89-9.12q-2.88-3.48-8.89-5.7a111,111,0,0,0-15-4.14A105.09,105.09,0,0,1,3720.8,667a21.22,21.22,0,0,1-9.5-6.47q-3.18-4.08-3.18-11a22,22,0,0,1,3.78-13,23.35,23.35,0,0,1,10.64-8.1,41.87,41.87,0,0,1,15.74-2.76,45.73,45.73,0,0,1,10.28,1.09,33.4,33.4,0,0,1,8.77,3.3,35.58,35.58,0,0,1,7.51,5.59Z"/><path class="cls-1" d="M3841.63,706v5.53h-56.84V626.21h55.76v5.53h-49.63v33.53h43.38v5.29h-43.38V706Z"/><path class="cls-1" d="M3858.33,711.54V626.21h35.46a21.9,21.9,0,0,1,10,2.29,25.55,25.55,0,0,1,7.81,6.07,29.08,29.08,0,0,1,5.17,8.47,25.83,25.83,0,0,1,1.86,9.61,28.32,28.32,0,0,1-2.52,11.9,25.57,25.57,0,0,1-7,9.25,20.63,20.63,0,0,1-10.52,4.57l21.27,33.17h-7.09l-20.67-32.21h-27.64v32.21Zm6.13-37.86h29.93a15.79,15.79,0,0,0,9.61-3,19.87,19.87,0,0,0,6.31-7.81,24.1,24.1,0,0,0,2.22-10.22,21.16,21.16,0,0,0-2.58-10.27,21.85,21.85,0,0,0-6.85-7.69,16.4,16.4,0,0,0-9.55-3h-29.09Z"/><path class="cls-1" d="M3931.28,626.21l32.45,77.64,32.44-77.64h6.49l-35.93,85.33h-5.89l-36.05-85.33Z"/><path class="cls-1" d="M4015.76,711.54V626.21h6.13v85.33Z"/><path class="cls-1" d="M4038.35,668.15a44.45,44.45,0,0,1,2.71-15.2,45,45,0,0,1,7.87-13.7,38.64,38.64,0,0,1,12.68-9.91,38,38,0,0,1,17.12-3.73q11.42,0,19.47,5.23a33.09,33.09,0,0,1,12,13.4l-5.05,2.88a27.33,27.33,0,0,0-16.83-14.36,35.25,35.25,0,0,0-10.09-1.5,30.84,30.84,0,0,0-14.36,3.25,32.38,32.38,0,0,0-10.64,8.65,39.14,39.14,0,0,0-6.55,12,41.6,41.6,0,0,0-2.22,13.33,39.33,39.33,0,0,0,2.64,14.37A40.52,40.52,0,0,0,4054.4,695a35.47,35.47,0,0,0,10.81,8.42,29.35,29.35,0,0,0,13.4,3.12,33.83,33.83,0,0,0,10.51-1.74,32.71,32.71,0,0,0,10-5.41,27,27,0,0,0,7.57-9.55l5.29,2.52a28.18,28.18,0,0,1-8.29,10.82,40,40,0,0,1-12.26,6.72,41.17,41.17,0,0,1-13.34,2.29,34.2,34.2,0,0,1-16-3.79,41.25,41.25,0,0,1-12.68-10.09,46.34,46.34,0,0,1-8.23-14.18A45.85,45.85,0,0,1,4038.35,668.15Z"/><path class="cls-1" d="M4184,706v5.53h-56.84V626.21h55.76v5.53h-49.63v33.53h43.38v5.29h-43.38V706Z"/><path class="cls-1" d="M4249.37,640.39a25.66,25.66,0,0,0-4.56-4,27.52,27.52,0,0,0-5.41-2.89,32.49,32.49,0,0,0-6.25-1.74,41.08,41.08,0,0,0-7.21-.6q-12.49,0-18.21,4.74a15.76,15.76,0,0,0-5.7,12.78q0,5.4,2.58,8.58t8.11,5.1a116,116,0,0,0,14.3,3.72,104.37,104.37,0,0,1,16,4.5,24.48,24.48,0,0,1,10.39,7q3.66,4.44,3.67,12a21.61,21.61,0,0,1-2.17,9.9,18.39,18.39,0,0,1-6.25,7,30.91,30.91,0,0,1-9.67,4.2,49.88,49.88,0,0,1-12.44,1.44,54,54,0,0,1-12.62-1.44,49.42,49.42,0,0,1-11.29-4.21,43.92,43.92,0,0,1-9.86-7.09l3.25-4.93a32.43,32.43,0,0,0,5.95,5.11,38.22,38.22,0,0,0,7.21,3.79,48,48,0,0,0,8.35,2.46,46.51,46.51,0,0,0,9.25.9q11.18,0,17.49-4.14t6.31-12.29a13.84,13.84,0,0,0-2.89-9.12q-2.88-3.48-8.89-5.7a111,111,0,0,0-15-4.14,105.09,105.09,0,0,1-15.32-4.33,21.16,21.16,0,0,1-9.5-6.47q-3.18-4.08-3.18-11a22,22,0,0,1,3.78-13,23.35,23.35,0,0,1,10.64-8.1,41.83,41.83,0,0,1,15.74-2.76,45.79,45.79,0,0,1,10.28,1.09A33.54,33.54,0,0,1,4245,630a35.84,35.84,0,0,1,7.51,5.59Z"/><path class="cls-1" d="M1014,489.76V147h124.53q56,0,93.65,22.93t56.48,61.79q18.82,38.85,18.82,86.16,0,52.13-20.75,90.75a146.86,146.86,0,0,1-58.65,59.85q-37.9,21.25-89.55,21.24Zm226.39-171.84q0-33.32-12.07-58.65t-34.76-39.58q-22.69-14.24-55-14.24H1080.6V431.36h57.92q33.32,0,55.76-15t34.27-40.55Q1240.37,350.27,1240.38,317.92Z"/><path class="cls-1" d="M1505.86,492.18q-37.65,0-68.06-14.48a164.83,164.83,0,0,1-52.61-39.34,182.11,182.11,0,0,1-34.28-56,175.44,175.44,0,0,1-12.07-64,170.47,170.47,0,0,1,12.8-65.41,185.17,185.17,0,0,1,35.23-55.51,166.56,166.56,0,0,1,53.34-38.61q30.88-14.24,67.1-14.24,37.17,0,67.82,15a163.29,163.29,0,0,1,52.38,40.07,187.36,187.36,0,0,1,33.54,56,176.7,176.7,0,0,1,11.83,63.72,174.92,174.92,0,0,1-12.31,64.92,177.59,177.59,0,0,1-34.75,55.51,164,164,0,0,1-53.1,38.38Q1542.06,492.19,1505.86,492.18ZM1406.42,318.4a137.69,137.69,0,0,0,6.76,43,117.67,117.67,0,0,0,19.55,36.93,93,93,0,0,0,31.38,25.58q18.57,9.42,42.24,9.42,24.62,0,43-9.9a98,98,0,0,0,31.13-26.31,113.15,113.15,0,0,0,19.07-37.17,142.84,142.84,0,0,0,6.27-41.51,135.83,135.83,0,0,0-6.75-42.72,115.59,115.59,0,0,0-19.8-36.68,96.5,96.5,0,0,0-31.37-25.59q-18.36-9.41-42-9.41t-42.23,9.89A98.49,98.49,0,0,0,1432.25,240a114.32,114.32,0,0,0-19.31,36.69A137.26,137.26,0,0,0,1406.42,318.4Z"/><path class="cls-1" d="M1964.44,205.45H1855.35V489.76h-66.13V205.45H1679.16V147h285.28Z"/><path class="cls-1" d="M2109.73,489.76V147h124.54q56,0,93.64,22.93t56.48,61.79q18.83,38.85,18.82,86.16,0,52.13-20.75,90.75a146.86,146.86,0,0,1-58.65,59.85q-37.91,21.25-89.54,21.24Zm226.39-171.84q0-33.32-12.07-58.65t-34.76-39.58q-22.7-14.24-55-14.24h-57.93V431.36h57.93q33.3,0,55.75-15t34.27-40.55Q2336.11,350.27,2336.12,317.92Z"/><path class="cls-1" d="M2693.32,431.36v58.4h-238V147H2689v58.41H2522V288H2665.8v54.06H2522v89.31Z"/><path class="cls-1" d="M2780.69,147l92.68,264,91.23-264h70L2905.23,489.76H2841L2710.69,147Z"/><path class="cls-1" d="M3309.74,431.36v58.4h-238V147h233.63v58.41h-167V288h143.85v54.06H3138.37v89.31Z"/><path class="cls-1" d="M3361.87,489.76V147h66.61V431.36h174.74v58.4Z"/><path class="cls-1" d="M3768.31,492.18q-37.65,0-68.06-14.48a164.87,164.87,0,0,1-52.62-39.34,182.27,182.27,0,0,1-34.27-56,175.44,175.44,0,0,1-12.07-64A170.46,170.46,0,0,1,3614.08,253a185.4,185.4,0,0,1,35.24-55.51,166.45,166.45,0,0,1,53.34-38.61q30.89-14.24,67.1-14.24,37.17,0,67.82,15A163.14,163.14,0,0,1,3890,199.66a187.19,187.19,0,0,1,33.55,56,176.91,176.91,0,0,1,11.83,63.72A174.92,174.92,0,0,1,3923,384.29a177.44,177.44,0,0,1-34.76,55.51,163.83,163.83,0,0,1-53.09,38.38Q3804.51,492.19,3768.31,492.18ZM3668.87,318.4a137.69,137.69,0,0,0,6.76,43,117.47,117.47,0,0,0,19.55,36.93,92.86,92.86,0,0,0,31.38,25.58q18.57,9.42,42.23,9.42,24.63,0,43-9.9a98,98,0,0,0,31.14-26.31A113.15,113.15,0,0,0,3862,359.91a142.84,142.84,0,0,0,6.27-41.51,135.55,135.55,0,0,0-6.76-42.72A115.57,115.57,0,0,0,3841.68,239a96.61,96.61,0,0,0-31.37-25.59q-18.36-9.41-42-9.41t-42.24,9.89A98.56,98.56,0,0,0,3694.7,240a114.32,114.32,0,0,0-19.31,36.69A137,137,0,0,0,3668.87,318.4Z"/><path class="cls-1" d="M3987,489.76V147h145.29a99.41,99.41,0,0,1,43.69,9.65,108.35,108.35,0,0,1,34.51,26.07,122.9,122.9,0,0,1,22.45,36.69,112.56,112.56,0,0,1,8,41.51,121.92,121.92,0,0,1-13,54.79,110.37,110.37,0,0,1-36.93,42.72q-23.9,16.41-55.75,16.41h-81.58V489.76Zm66.61-173.29h77.23a37.75,37.75,0,0,0,22.21-6.76q9.65-6.75,15.2-19.55t5.56-29.2q0-17.85-6.52-30.17a48.23,48.23,0,0,0-16.9-18.83,41.46,41.46,0,0,0-22.44-6.51h-74.34Z"/></svg>