<?xml version="1.0" encoding="utf-8"?>
<!-- Generator: Adobe Illustrator 25.0.0, SVG Export Plug-In . SVG Version: 6.00 Build 0)  -->
<svg version="1.1" id="Layer_1" xmlns="http://www.w3.org/2000/svg" xmlns:xlink="http://www.w3.org/1999/xlink" x="0px" y="0px"
	 viewBox="0 0 512 512" style="enable-background:new 0 0 512 512;" xml:space="preserve">
<style type="text/css">
	.st0{opacity:0.25;}
	.st1{fill:#1A1A1A;}
	.st2{opacity:0.25;fill:#1A1A1A;enable-background:new    ;}
	.st3{font-family:'Raleway-ExtraBold';}
	.st4{font-size:37.45px;}
	.st5{font-size:48.75px;}
</style>
<g id="no_Notification">
	<g class="st0">
		<path class="st1" d="M255.1,370c-44.2,0-88.5-0.3-132.7,0.1c-24.5,0.2-39.5-14.7-44.8-34.9c-2.2-8.3-1-16,1.2-23.9
			c3.6-12.5,9.9-23.4,19.6-32c8.4-7.5,14.6-16.4,19.5-26.4c8.9-18.2,13.6-37.6,16.4-57.5c2-14.4,2.2-29,3-43.5
			c1.8-35.3,15-65.3,42.6-88.2c9.3-7.5,19.8-13.5,31-17.6c1.4-0.4,2.5-1.6,2.9-3c7.2-19.4,26.9-31.3,47.5-28.7
			c18.3,2.4,31.1,12.1,37.7,29.6c0.5,1,1.4,1.8,2.5,2.2c18.3,7.7,34.4,18.5,47.5,33.6c14.1,15.8,22.8,35.7,24.8,56.8
			c0.9,8.9,0.9,17.8,1.4,26.7c1.4,25.5,4.8,50.6,13.2,74.8c3.5,10.1,7.8,19.9,14.3,28.4c3.2,4.1,6.7,7.9,10.5,11.3
			c14.6,13.2,22.8,29.5,22.5,49.1c-0.3,20.4-12.7,40.9-41,42.7c-2.2,0.1-4.5,0.2-6.7,0.2H255.1V370z M119.2,353.6
			c0.9-0.1,1.7-0.1,2.6-0.1h1.3h265c1.5,0,3,0,4.5,0c16.2-0.7,27-12.3,26-28.2c-0.8-14.1-6.7-25.6-17.2-35.2
			c-5-4.6-9.6-9.7-13.6-15.2c-9.8-13.5-15.5-29-19.9-45c-7.3-26.6-10.1-53.9-10.4-81.4c0-14.5-3.6-28.9-10.5-41.7
			c-12.6-23-32.2-37.7-56.4-46.7c-4-1.5-6.4-3.9-7.3-8.2c-2.7-12.6-14.1-21.3-27.2-21.2s-24.4,8.8-27,21.5c-0.8,3.5-3.4,6.4-6.9,7.5
			c-10.6,3.2-20.5,8.3-29.2,15c-25,19.6-36.6,46-38.5,77.1c-0.8,12.9-0.9,25.8-2.2,38.6c-2.4,23.8-7.7,46.9-18.1,68.6
			c-5.4,11.2-11.8,21.8-21.4,30c-8.5,7.1-14.6,16.7-17.5,27.4c-1.3,4.6-2.5,9.2-1.2,14.1c2.1,8,5.3,15.1,12.8,19.6
			C110.5,352.3,114.8,353.5,119.2,353.6L119.2,353.6z"/>
		<path class="st1" d="M254.6,434.1c-19.7-0.6-38.3-7.1-53.2-22.4c-5.8-5.9-10.2-13.1-12.8-20.9c-0.6-1.9-0.7-4-0.3-5.9
			c0.7-3.1,3.3-5.4,6.5-5.7c3.2-0.3,6.3,1.6,7.6,4.5c0.9,1.9,1.5,3.9,2.4,5.8c5.7,11.5,15,19,26.8,23.4c21.8,8.1,42.6,6.2,61.8-7.3
			c7.1-5,12.5-12.1,15.3-20.3c1.7-4.9,5.8-7.2,9.8-5.8c4.2,1.5,6.4,6.2,4.8,10.9c-4.5,13.2-13,23.3-24.5,31
			C285.8,430.1,271.3,433.9,254.6,434.1z"/>
	</g>
	<g class="st0">
		<path class="st1" d="M186.8,178c0,0,26.4,20.7,52.8-5"/>
		<path class="st1" d="M325.2,179.6c0,0-26.4,20.6-52.8-5.1"/>
		<circle class="st1" cx="254.6" cy="235.5" r="11.1"/>
	</g>
	<text transform="matrix(1 0 0 1 330.09 130.99)" class="st2 st3 st4">z</text>
	<text transform="matrix(1 0 0 1 339.91 81.87)" class="st2 st3 st4">z</text>
	<text transform="matrix(0.84 0 0 1 366.71 72.4302)" class="st2 st3 st5">z</text>
</g>
</svg>
