<svg id="Layer_1" data-name="Layer 1" xmlns="http://www.w3.org/2000/svg" xmlns:xlink="http://www.w3.org/1999/xlink" viewBox="0 0 1170 2532"><defs><style>.cls-1,.cls-2{fill:none;}.cls-2{stroke:#f2f2f2;stroke-miterlimit:10;}.cls-3{fill:url(#New_Pattern_5);}</style><pattern id="New_Pattern_5" data-name="New Pattern 5" width="874.17" height="1122" patternTransform="translate(-767.89 -764.82)" patternUnits="userSpaceOnUse" viewBox="0 0 874.17 1122"><rect class="cls-1" width="874.17" height="1122"/><polygon class="cls-2" points="874.17 1165.42 874.17 1122 857.61 1122 857.7 1174.84 874.17 1165.42"/><polygon class="cls-2" points="850.2 1179.13 850.1 1122 833.35 1122 833.35 1188.75 850.2 1179.13"/><polygon class="cls-2" points="809.12 1202.6 825.84 1193.04 825.85 1122 819.78 1122 809.12 1128.09 809.12 1202.6"/><polygon class="cls-2" points="704.36 1202.93 704.36 1183.72 596.36 1122 590.29 1122 590.29 1137.74 704.36 1202.93"/><path class="cls-2" d="M704.35,1156l-46.83-26.76a2.49,2.49,0,0,1-.43-.29L645,1122H611.37l93,53.14Z"/><polygon class="cls-2" points="680.12 1133.55 680.12 1122 663.15 1122 663.15 1123.85 680.12 1133.55"/><polygon class="cls-2" points="704.27 1147.35 704.27 1122 687.62 1122 687.62 1137.84 704.27 1147.35"/><polygon class="cls-2" points="752.9 1151.64 752.9 1122 736.1 1122 736.1 1161.24 752.9 1151.64"/><polygon class="cls-2" points="728.59 1161.24 728.59 1122 711.78 1122 711.78 1151.64 728.59 1161.24"/><polygon class="cls-2" points="760.4 1147.35 804.77 1122 771.15 1122 760.4 1128.14 760.4 1147.35"/><polygon class="cls-2" points="582.78 1165.42 582.78 1122 566.22 1122 566.3 1174.84 582.78 1165.42"/><polygon class="cls-2" points="558.8 1179.13 558.71 1122 541.96 1122 541.96 1188.75 558.8 1179.13"/><polygon class="cls-2" points="517.73 1202.6 534.45 1193.04 534.45 1122 528.39 1122 517.73 1128.09 517.73 1202.6"/><polygon class="cls-2" points="412.97 1202.93 412.96 1183.72 304.96 1122 298.9 1122 298.9 1137.74 412.97 1202.93"/><path class="cls-2" d="M413,1156l-46.83-26.76a2.49,2.49,0,0,1-.43-.29L353.59,1122H320l93,53.14Z"/><polygon class="cls-2" points="388.73 1133.55 388.73 1122 371.76 1122 371.76 1123.85 388.73 1133.55"/><polygon class="cls-2" points="412.88 1147.35 412.88 1122 396.23 1122 396.23 1137.84 412.88 1147.35"/><polygon class="cls-2" points="461.5 1151.64 461.51 1122 444.7 1122 444.7 1161.24 461.5 1151.64"/><polygon class="cls-2" points="437.2 1161.24 437.2 1122 420.39 1122 420.39 1151.64 437.2 1161.24"/><polygon class="cls-2" points="469.01 1147.35 513.38 1122 479.76 1122 469.01 1128.14 469.01 1147.35"/><polygon class="cls-2" points="291.39 1165.42 291.39 1122 274.83 1122 274.91 1174.84 291.39 1165.42"/><polygon class="cls-2" points="267.41 1179.13 267.32 1122 250.57 1122 250.56 1188.75 267.41 1179.13"/><polygon class="cls-2" points="226.34 1202.6 243.06 1193.04 243.06 1122 237 1122 226.34 1128.09 226.34 1202.6"/><polygon class="cls-2" points="121.58 1202.93 121.58 1183.72 13.57 1122 7.51 1122 7.51 1137.74 121.58 1202.93"/><path class="cls-2" d="M121.57,1156l-46.83-26.76a2.49,2.49,0,0,1-.43-.29L62.2,1122H28.59l93,53.14Z"/><polygon class="cls-2" points="97.34 1133.55 97.34 1122 80.37 1122 80.37 1123.85 97.34 1133.55"/><polygon class="cls-2" points="121.49 1147.35 121.49 1122 104.84 1122 104.84 1137.84 121.49 1147.35"/><polygon class="cls-2" points="170.12 1151.64 170.12 1122 153.31 1122 153.31 1161.24 170.12 1151.64"/><polygon class="cls-2" points="145.81 1161.24 145.81 1122 129 1122 129 1151.64 145.81 1161.24"/><polygon class="cls-2" points="177.62 1147.35 221.99 1122 188.37 1122 177.62 1128.14 177.62 1147.35"/><polygon class="cls-2" points="0 1165.42 0 1122 -16.56 1122 -16.48 1174.84 0 1165.42"/><polygon class="cls-2" points="590.29 718.65 590.29 793.33 607.07 802.91 607.19 728.3 590.29 718.65"/><polygon class="cls-2" points="614.69 732.59 614.57 807.2 620.18 810.41 631.42 803.99 631.41 742.15 614.69 732.59"/><polygon class="cls-2" points="590.29 821.11 595.87 824.3 612.67 814.7 590.29 801.91 590.29 821.11"/><polygon class="cls-2" points="638.92 746.44 638.92 799.7 655.65 790.14 655.65 756 638.92 746.44"/><polygon class="cls-2" points="857.7 719.55 874.17 710.14 874.17 635.46 857.57 644.94 857.7 719.55"/><polygon class="cls-2" points="663.15 760.28 663.15 790.05 680.12 799.74 680.12 769.98 663.15 760.28"/><polygon class="cls-2" points="687.62 774.33 687.62 804.03 704.27 813.54 704.27 783.79 687.62 774.33"/><polygon class="cls-2" points="844.59 727.04 850.2 723.84 850.07 649.23 833.35 658.78 833.35 720.62 844.59 727.04"/><polygon class="cls-2" points="728.58 797.67 711.78 788.07 711.78 817.83 728.58 827.43 728.58 797.67"/><polygon class="cls-2" points="868.89 740.93 874.17 737.92 874.17 718.72 852.09 731.33 868.89 740.93"/><polygon class="cls-2" points="825.84 716.33 825.85 663.07 809.12 672.63 809.12 706.78 825.84 716.33"/><polygon class="cls-2" points="874.17 1090.92 857.57 1100.4 857.61 1122 874.17 1122 874.17 1090.92"/><polygon class="cls-2" points="833.35 1114.24 833.35 1122 850.1 1122 850.07 1104.69 833.35 1114.24"/><polygon class="cls-2" points="819.78 1122 825.85 1122 825.85 1118.53 819.78 1122"/><polygon class="cls-2" points="590.29 52.11 590.29 126.61 607.07 136.2 607.19 61.77 590.29 52.11"/><polygon class="cls-2" points="614.69 66.05 614.57 140.49 631.42 150.12 631.41 75.61 614.69 66.05"/><polygon class="cls-2" points="590.29 205.68 603.34 198.22 590.29 190.77 590.29 205.68"/><polygon class="cls-2" points="590.29 182.19 610.85 193.94 627.65 184.33 590.29 162.98 590.29 182.19"/><polygon class="cls-2" points="590.29 154.4 635.16 180.04 651.97 170.44 590.29 135.19 590.29 154.4"/><polygon class="cls-2" points="638.92 79.9 638.92 154.41 655.65 163.96 655.65 89.46 638.92 79.9"/><polygon class="cls-2" points="874.17 43.42 874.17 0 857.61 0 857.7 52.84 874.17 43.42"/><polygon class="cls-2" points="663.15 93.75 663.15 168.25 680.12 177.95 680.12 103.44 663.15 93.75"/><polygon class="cls-2" points="687.62 107.73 687.62 182.24 704.27 191.75 704.27 117.25 687.62 107.73"/><polygon class="cls-2" points="850.2 57.13 850.1 0 833.35 0 833.35 66.75 850.2 57.13"/><polygon class="cls-2" points="711.78 121.53 711.78 196.04 728.57 205.63 728.57 131.13 711.78 121.53"/><polygon class="cls-2" points="874.17 122.16 874.17 107.58 861.41 114.86 874.17 122.16"/><polygon class="cls-2" points="853.91 110.58 874.17 99 874.17 79.79 837.1 100.97 853.91 110.58"/><polygon class="cls-2" points="829.59 96.68 874.17 71.21 874.17 52 812.79 87.08 829.59 96.68"/><polygon class="cls-2" points="809.12 80.6 825.84 71.04 825.85 0 819.78 0 809.12 6.09 809.12 80.6"/><polygon class="cls-2" points="801.61 84.88 801.61 10.38 784.64 20.08 784.64 94.58 801.61 84.88"/><polygon class="cls-2" points="760.49 34 760.49 108.38 777.14 98.87 777.14 24.53 760.49 34"/><path class="cls-2" d="M711.86,59.55v0h0V113l16.8,9.6V47.87l-16.81-9.61Z"/><polygon class="cls-2" points="752.98 38.27 736.17 47.83 736.17 122.27 752.98 112.67 752.98 38.27"/><polygon class="cls-2" points="590.29 24.32 590.3 43.53 704.36 108.71 704.36 89.51 590.29 24.32"/><polygon class="cls-2" points="704.36 80.93 704.36 61.72 596.36 0 590.29 0 590.29 15.74 704.36 80.93"/><path class="cls-2" d="M704.35,34,657.52,7.21a2.49,2.49,0,0,1-.43-.29L645,0H611.37l93,53.14Z"/><polygon class="cls-2" points="680.12 11.54 680.12 0 663.15 0 663.15 1.85 680.12 11.54"/><polygon class="cls-2" points="704.27 25.35 704.27 0 687.62 0 687.62 15.84 704.27 25.35"/><polygon class="cls-2" points="752.9 29.64 752.9 0 736.1 0 736.1 39.24 752.9 29.64"/><polygon class="cls-2" points="728.59 39.24 728.59 0 711.78 0 711.78 29.64 728.59 39.24"/><polygon class="cls-2" points="760.4 25.35 804.77 0 771.15 0 760.4 6.14 760.4 25.35"/><path class="cls-2" d="M607.19,225.79a3.71,3.71,0,0,1,1.88-3.22l48.7-27.68a3.8,3.8,0,0,1,3.75,0l46.59,26.77,16.76-9.58-65.4-37.36-69.19,39.54v79.07l16.78,9.59Z"/><path class="cls-2" d="M631.4,239.91a3.72,3.72,0,0,1,1.88-3.22L657.6,222.8a3.75,3.75,0,0,1,3.75,0l22.4,12.8c5.47-3.13,11.27-6.45,16.87-9.64l-41-23.55L614.69,228l-.13,79.26,16.85,9.63Z"/><polygon class="cls-2" points="590.29 372.22 603.17 364.86 590.29 357.49 590.29 372.22"/><polygon class="cls-2" points="590.29 348.91 610.68 360.57 627.49 350.96 590.28 329.7 590.29 348.91"/><polygon class="cls-2" points="590.28 321.12 635 346.68 651.8 337.07 590.28 301.92 590.28 321.12"/><path class="cls-2" d="M655.64,253.8a3.71,3.71,0,0,1,1.92-3.24l18.68-10.67-16.76-9.58-20.57,11.74v79.08l16.72,9.56Z"/><path class="cls-2" d="M607.19,392.32a3.7,3.7,0,0,1,1.89-3.21l48.69-27.68a3.79,3.79,0,0,1,3.76,0l46.59,26.77,16.54-9.46-65.39-37.37-69,39.42v79.07l16.78,9.59Z"/><path class="cls-2" d="M631.41,406.44a3.71,3.71,0,0,1,1.88-3.21l24.32-13.9a3.8,3.8,0,0,1,3.75,0l22.39,12.8,16.87-9.64-41-23.55L614.7,394.48l-.13,79.27,16.85,9.63Z"/><polygon class="cls-2" points="590.29 539.05 603.44 531.54 590.29 524.03 590.29 539.05"/><polygon class="cls-2" points="590.29 515.45 610.95 527.25 627.76 517.65 590.29 496.24 590.29 515.45"/><polygon class="cls-2" points="590.29 487.66 635.26 513.36 652.07 503.75 590.29 468.45 590.29 487.66"/><path class="cls-2" d="M655.65,420.34a3.71,3.71,0,0,1,1.91-3.24l18.69-10.68-16.77-9.58-20.56,11.75v79.08l16.73,9.55Z"/><polygon class="cls-2" points="801.61 706.69 801.61 676.92 784.64 686.62 784.64 716.38 801.61 706.69"/><path class="cls-2" d="M607.19,559.16a3.72,3.72,0,0,1,1.89-3.22l48.69-27.68a3.82,3.82,0,0,1,3.76,0L708.12,555l16.75-9.58L659.48,508.1l-69.19,39.54v79.07l16.78,9.59Z"/><polygon class="cls-2" points="760.49 700.54 760.49 730.18 777.14 720.67 777.14 691.07 760.49 700.54"/><path class="cls-2" d="M728.58,750.56a3.85,3.85,0,0,1,.09-.76V714.41l-16.81-9.61v21.31h0v53.42l16.71,9.55Z"/><path class="cls-2" d="M631.41,573.28a3.72,3.72,0,0,1,1.88-3.22l24.32-13.89a3.75,3.75,0,0,1,3.75,0L683.75,569l16.87-9.64-41-23.55L614.7,561.32l-.13,79.26,16.85,9.63Z"/><polygon class="cls-2" points="752.98 704.81 736.17 714.37 736.17 744.07 752.98 734.47 752.98 704.81"/><polygon class="cls-2" points="704.36 756.05 590.29 690.86 590.3 710.07 704.36 775.25 704.36 756.05"/><polygon class="cls-2" points="704.36 747.47 704.36 728.26 590.29 663.07 590.29 682.28 704.36 747.47"/><path class="cls-2" d="M704.35,719.68V700.51l-46.83-26.76a3.23,3.23,0,0,1-.43-.29l-66.8-38.17v19.2Z"/><path class="cls-2" d="M655.65,587.17a3.72,3.72,0,0,1,1.91-3.24l18.69-10.67-16.77-9.58-20.56,11.74V654.5l16.73,9.56Z"/><path class="cls-2" d="M607.19,847.59a3.72,3.72,0,0,1,1.89-3.22l48.69-27.68a3.82,3.82,0,0,1,3.76,0l46.59,26.77,16.75-9.58-65.39-37.36-69.19,39.54v79.07l16.78,9.59Z"/><path class="cls-2" d="M631.41,861.71a3.71,3.71,0,0,1,1.88-3.22l24.32-13.89a3.75,3.75,0,0,1,3.75,0l22.39,12.8,16.87-9.65-41-23.55L614.7,849.74,614.57,929l16.85,9.63Z"/><polygon class="cls-2" points="590.29 994.51 603.61 986.9 590.29 979.29 590.29 994.51"/><polygon class="cls-2" points="590.29 970.71 611.12 982.61 627.93 973.01 590.29 951.5 590.29 970.71"/><polygon class="cls-2" points="590.29 942.92 635.43 968.72 652.24 959.12 590.29 923.72 590.29 942.92"/><path class="cls-2" d="M655.65,875.6a3.72,3.72,0,0,1,1.91-3.24l18.69-10.68-16.77-9.58-20.56,11.75v79.08l16.73,9.56Z"/><path class="cls-2" d="M659.48,963.56l-69.19,39.54v79.07l16.78,9.59.12-77.14a3.72,3.72,0,0,1,1.89-3.22l48.69-27.67a3.79,3.79,0,0,1,3.76,0l46.59,26.77,16.75-9.57Z"/><path class="cls-2" d="M614.7,1016.78l-.13,79.26,16.85,9.63v-76.93a3.72,3.72,0,0,1,1.88-3.22l24.32-13.89a3.77,3.77,0,0,1,3.75,0l22.39,12.8,16.87-9.64-41-23.55Z"/><polygon class="cls-2" points="590.29 1122 596.36 1122 590.29 1118.54 590.29 1122"/><polygon class="cls-2" points="590.29 1109.95 611.37 1122 644.98 1122 590.29 1090.75 590.29 1109.95"/><path class="cls-2" d="M638.92,1030.88V1110l16.73,9.56v-76.89a3.72,3.72,0,0,1,1.91-3.24l18.69-10.67-16.77-9.58Z"/><polygon class="cls-2" points="857.7 1008.4 874.17 998.98 874.17 923.89 857.57 933.37 857.7 1008.4"/><path class="cls-2" d="M680.12,1056.75v0a4.62,4.62,0,0,1,.06-.64,1,1,0,0,0,0-.17,4.62,4.62,0,0,1,.19-.6.3.3,0,0,1,0-.08,3.29,3.29,0,0,1,.26-.49.71.71,0,0,0,.1-.14,3.64,3.64,0,0,1,.4-.48l0,0a4.14,4.14,0,0,1,.46-.37l.15-.1.13-.09,70.95-40.83,0-19.52-17.63,10.07a3.73,3.73,0,0,1-1.06.91l-71.06,40.61V1122h17Z"/><polygon class="cls-2" points="687.62 1063.17 687.62 1122 704.27 1122 704.27 1072.64 687.62 1063.17"/><polygon class="cls-2" points="850.2 1012.68 850.07 937.66 833.35 947.21 833.35 1022.31 850.2 1012.68"/><path class="cls-2" d="M752.9,1098.21v-25.64l-22.43-12.83a3.69,3.69,0,0,1,0-6.43l46.75-26.72v-47.3L760.4,988.9l0,25.94a3.71,3.71,0,0,1-1.87,3.22l-67.2,38.67,18.24,10.37a3.39,3.39,0,0,1,.56.32l24,13.67a3.71,3.71,0,0,1,1.89,3.22V1122h16.8v-23.78Z"/><polygon class="cls-2" points="711.78 1076.91 711.78 1122 728.58 1122 728.59 1122 728.59 1086.46 711.78 1076.91"/><path class="cls-2" d="M782.85,1032l-43,24.57,16.81,9.6,44.87-25.64V965.4L784.72,975v53.74A3.71,3.71,0,0,1,782.85,1032Z"/><polygon class="cls-2" points="874.17 1082.34 874.17 1063.13 771.15 1122 777.22 1122 784.72 1122 791.28 1122 804.77 1122 874.17 1082.34"/><polygon class="cls-2" points="760.41 1100.36 760.4 1119.56 874.17 1054.55 874.17 1035.34 760.41 1100.36"/><polygon class="cls-2" points="760.41 1072.57 760.41 1091.78 874.17 1026.76 874.17 1007.56 760.41 1072.57"/><polygon class="cls-2" points="825.84 1026.6 825.85 951.5 809.04 961.11 809.04 1036.2 825.84 1026.6"/><path class="cls-2" d="M805.28,91.37l-69.2,39.53v81.22a3.7,3.7,0,0,1-1.88,3.22L663.15,256V335l17,9.69V267.9a3.48,3.48,0,0,1,.07-.64l0-.17a4.18,4.18,0,0,1,.19-.6s0-.05,0-.08a4.67,4.67,0,0,1,.27-.49l.09-.14a4.63,4.63,0,0,1,.4-.48l0,0a2.76,2.76,0,0,1,.46-.37.78.78,0,0,1,.15-.1.6.6,0,0,1,.13-.09l70.94-40.83-.12-81.22a3.71,3.71,0,0,1,1.87-3.22l48.56-27.9a3.77,3.77,0,0,1,3.75,0l48.7,27.68a3.71,3.71,0,0,1,1.88,3.21l.13,77.15,16.48-9.42V130.73Z"/><polygon class="cls-2" points="704.27 283.81 687.62 274.34 687.62 349 704.27 358.52 704.27 283.81"/><path class="cls-2" d="M850.06,144.58,805.12,119l-44.81,25.75.12,81.22a3.74,3.74,0,0,1-1.86,3.22L691.36,267.9l18.24,10.37a3.39,3.39,0,0,1,.56.32l22,12.51L749,281.5l-18.52-10.59a3.69,3.69,0,0,1,0-6.43l46.75-26.72V156.55a2.56,2.56,0,0,1,0-.39v-.09a4.29,4.29,0,0,1,.14-.62l.06-.16a3.73,3.73,0,0,1,.66-1.14l.11-.12a3.34,3.34,0,0,1,.48-.44l.07,0a1.9,1.9,0,0,1,.33-.22l24.3-13.89a3.77,3.77,0,0,1,3.76,0l24.32,13.89a3.71,3.71,0,0,1,1.88,3.22v76.93l16.85-9.63Z"/><polygon class="cls-2" points="728.58 297.63 711.77 288.08 711.77 362.81 728.58 372.41 728.58 297.63"/><path class="cls-2" d="M801.52,172.58l-16.8-9.6v76.93a3.72,3.72,0,0,1-1.88,3.22l-43,24.57,16.64,9.51,45-25.74Z"/><polygon class="cls-2" points="874.17 288.69 874.17 274.3 861.58 281.49 874.17 288.69"/><polygon class="cls-2" points="854.07 277.2 874.17 265.72 874.17 246.51 837.27 267.6 854.07 277.2"/><polygon class="cls-2" points="829.76 263.31 874.17 237.93 874.17 218.72 812.96 253.71 829.76 263.31"/><path class="cls-2" d="M825.84,158.69l-20.57-11.75-16.8,9.61,18.68,10.67a3.7,3.7,0,0,1,1.88,3.22v76.93l16.8-9.6Z"/><path class="cls-2" d="M805.29,257.9l-69.2,39.54v81.22a3.71,3.71,0,0,1-1.88,3.21l-71.06,40.61v79.07l17,9.7v-76.8h0a4.48,4.48,0,0,1,.06-.64,1.36,1.36,0,0,0,0-.17,3.82,3.82,0,0,1,.19-.6.2.2,0,0,1,0-.08,2.87,2.87,0,0,1,.26-.49l.1-.14a3.72,3.72,0,0,1,.4-.49l0,0a3.32,3.32,0,0,1,.46-.38l.15-.1.13-.09,70.95-40.83-.12-81.22a3.72,3.72,0,0,1,1.86-3.22l48.57-27.9a3.77,3.77,0,0,1,3.75,0l48.7,27.67a3.71,3.71,0,0,1,1.88,3.22l.12,77.14,16.48-9.42V297.26Z"/><polygon class="cls-2" points="704.27 450.34 687.62 440.87 687.62 515.54 704.27 525.05 704.27 450.34"/><path class="cls-2" d="M850.07,311.12l-44.94-25.54-44.81,25.74.12,81.22a3.71,3.71,0,0,1-1.87,3.22l-67.2,38.67,18.24,10.38a2.8,2.8,0,0,1,.56.32l22.26,12.65,16.81-9.6-18.77-10.73a3.7,3.7,0,0,1,0-6.44l46.75-26.71V323.08c0-.13,0-.26,0-.38a.38.38,0,0,0,0-.1,4.15,4.15,0,0,1,.14-.61,1.42,1.42,0,0,0,.05-.16,3.9,3.9,0,0,1,.67-1.15l.11-.12a3.8,3.8,0,0,1,.47-.43l.08-.05a3.62,3.62,0,0,1,.32-.22L803.4,306a3.8,3.8,0,0,1,3.75,0l24.33,13.89a3.71,3.71,0,0,1,1.87,3.22V400l16.84-9.62Z"/><polygon class="cls-2" points="728.58 464.16 711.78 454.61 711.78 529.34 728.58 538.94 728.58 464.16"/><path class="cls-2" d="M801.53,339.12l-16.81-9.61v76.93a3.7,3.7,0,0,1-1.87,3.22l-43,24.57,16.81,9.61,44.87-25.65Z"/><polygon class="cls-2" points="874.17 455.52 874.17 440.83 861.32 448.18 874.17 455.52"/><polygon class="cls-2" points="853.81 443.89 874.17 432.25 874.17 413.05 837.01 434.29 853.81 443.89"/><polygon class="cls-2" points="829.5 430 874.17 404.47 874.17 385.26 812.7 420.39 829.5 430"/><path class="cls-2" d="M825.85,325.23l-20.57-11.75-16.8,9.6,18.68,10.68A3.71,3.71,0,0,1,809,337V413.9l16.8-9.6Z"/><path class="cls-2" d="M805.29,424.74l-69.2,39.53v81.22a3.72,3.72,0,0,1-1.88,3.22l-71.06,40.61v79.07l17,9.69V601.27a4.62,4.62,0,0,1,.06-.64,1,1,0,0,0,0-.17,4.18,4.18,0,0,1,.19-.6.3.3,0,0,1,0-.08,3.29,3.29,0,0,1,.26-.49.71.71,0,0,0,.1-.14,3.64,3.64,0,0,1,.4-.48l0,0a3.24,3.24,0,0,1,.46-.37l.15-.1.13-.09,70.95-40.83L752.81,476a3.7,3.7,0,0,1,1.86-3.22l48.57-27.9a3.77,3.77,0,0,1,3.75,0l48.7,27.68a3.71,3.71,0,0,1,1.88,3.21l.12,77.15,16.48-9.42V464.1Z"/><polygon class="cls-2" points="704.27 617.18 687.62 607.71 687.62 682.37 704.27 691.89 704.27 617.18"/><path class="cls-2" d="M850.07,478l-44.94-25.54-44.81,25.75.12,81.22a3.73,3.73,0,0,1-1.87,3.22l-67.2,38.67,18.24,10.37a4.3,4.3,0,0,1,.56.32l24,13.67a3.71,3.71,0,0,1,1.89,3.22v76.93l16.8-9.6V642.76h0V617.11l-22.43-12.83a3.69,3.69,0,0,1,0-6.43l46.75-26.72V489.92c0-.13,0-.26,0-.39a.28.28,0,0,0,0-.09,4.29,4.29,0,0,1,.14-.62.75.75,0,0,0,.05-.16,4,4,0,0,1,.67-1.14l.11-.12a3.89,3.89,0,0,1,.47-.44l.08,0a2.27,2.27,0,0,1,.32-.22l24.31-13.89a3.75,3.75,0,0,1,3.75,0l24.33,13.89a3.7,3.7,0,0,1,1.87,3.22v76.93l16.84-9.63Z"/><polygon class="cls-2" points="728.59 631 711.78 621.45 711.78 696.18 728.59 705.78 728.59 631"/><path class="cls-2" d="M801.53,506l-16.81-9.6v76.93a3.71,3.71,0,0,1-1.87,3.22l-43,24.57,16.81,9.6L801.53,585Z"/><polygon class="cls-2" points="760.4 672.68 760.4 691.89 874.17 626.88 874.17 607.67 760.4 672.68"/><polygon class="cls-2" points="760.41 644.89 760.4 664.1 874.17 599.09 874.17 579.88 760.41 644.89"/><polygon class="cls-2" points="760.41 617.11 760.41 636.31 874.17 571.3 874.17 552.1 760.41 617.11"/><path class="cls-2" d="M825.85,492.06l-20.57-11.75-16.8,9.61,18.68,10.67a3.72,3.72,0,0,1,1.88,3.22v76.93l16.8-9.6Z"/><path class="cls-2" d="M805.29,713.17l-69.2,39.53v81.22a3.72,3.72,0,0,1-1.88,3.22l-71.06,40.61v79.07l17,9.69V889.7a4.48,4.48,0,0,1,.06-.64,1,1,0,0,0,0-.17,4.18,4.18,0,0,1,.19-.6.3.3,0,0,1,0-.08,3.29,3.29,0,0,1,.26-.49l.1-.14a3.64,3.64,0,0,1,.4-.48l0,0a4.22,4.22,0,0,1,.46-.38l.15-.09.13-.09,70.95-40.83-.12-81.22a3.69,3.69,0,0,1,1.86-3.22l48.57-27.9a3.77,3.77,0,0,1,3.75,0L855.69,761a3.69,3.69,0,0,1,1.88,3.21l.12,77.14L874.17,832V752.53Z"/><polygon class="cls-2" points="704.27 905.61 687.62 896.14 687.62 970.8 704.27 980.32 704.27 905.61"/><path class="cls-2" d="M850.07,766.38l-44.94-25.54-44.81,25.75.12,81.22a3.73,3.73,0,0,1-1.87,3.22l-67.2,38.67,18.24,10.37a3.39,3.39,0,0,1,.56.32l24,13.67a3.7,3.7,0,0,1,1.89,3.22v76.93l16.8-9.6V931.19h0V905.53l-22.43-12.82a3.69,3.69,0,0,1,0-6.43l46.75-26.72V778.34c0-.13,0-.25,0-.38a.28.28,0,0,0,0-.09,4.29,4.29,0,0,1,.14-.62.75.75,0,0,0,.05-.16,3.85,3.85,0,0,1,.67-1.14l.11-.13a4.79,4.79,0,0,1,.47-.43l.08,0a3.53,3.53,0,0,1,.32-.21l24.31-13.9a3.8,3.8,0,0,1,3.75,0l24.33,13.9a3.7,3.7,0,0,1,1.87,3.22v76.93l16.84-9.63Z"/><polygon class="cls-2" points="728.59 919.43 711.78 909.87 711.78 984.61 728.59 994.21 728.59 919.43"/><path class="cls-2" d="M801.53,794.38l-16.81-9.6v76.93a3.7,3.7,0,0,1-1.87,3.21l-43,24.58,16.81,9.6,44.87-25.64Z"/><polygon class="cls-2" points="760.4 961.11 760.4 980.32 874.17 915.31 874.17 896.1 760.4 961.11"/><polygon class="cls-2" points="760.41 933.32 760.4 952.53 874.17 887.52 874.17 868.31 760.41 933.32"/><polygon class="cls-2" points="760.41 905.53 760.41 924.74 874.17 859.73 874.17 840.53 760.41 905.53"/><path class="cls-2" d="M825.85,780.49l-20.57-11.75-16.8,9.6L807.16,789a3.72,3.72,0,0,1,1.88,3.22v76.93l16.8-9.6Z"/><polygon class="cls-2" points="298.9 718.65 298.9 793.33 315.68 802.91 315.8 728.3 298.9 718.65"/><polygon class="cls-2" points="323.3 732.59 323.18 807.2 328.79 810.41 340.02 803.99 340.02 742.15 323.3 732.59"/><polygon class="cls-2" points="298.9 821.11 304.48 824.3 321.28 814.7 298.9 801.91 298.9 821.11"/><polygon class="cls-2" points="347.53 746.44 347.53 799.7 364.25 790.14 364.25 756 347.53 746.44"/><polygon class="cls-2" points="566.3 719.55 582.78 710.14 582.78 635.46 566.18 644.94 566.3 719.55"/><polygon class="cls-2" points="371.76 760.28 371.76 790.05 388.73 799.74 388.73 769.98 371.76 760.28"/><polygon class="cls-2" points="396.23 774.33 396.23 804.03 412.88 813.54 412.88 783.79 396.23 774.33"/><polygon class="cls-2" points="553.19 727.04 558.8 723.84 558.68 649.23 541.96 658.78 541.96 720.62 553.19 727.04"/><polygon class="cls-2" points="437.19 797.67 420.39 788.07 420.39 817.83 437.19 827.43 437.19 797.67"/><polygon class="cls-2" points="577.5 740.93 582.78 737.92 582.78 718.72 560.7 731.33 577.5 740.93"/><polygon class="cls-2" points="534.45 716.33 534.46 663.07 517.73 672.63 517.73 706.78 534.45 716.33"/><polygon class="cls-2" points="582.78 1090.92 566.18 1100.4 566.22 1122 582.78 1122 582.78 1090.92"/><polygon class="cls-2" points="541.96 1114.24 541.96 1122 558.71 1122 558.68 1104.69 541.96 1114.24"/><polygon class="cls-2" points="528.39 1122 534.45 1122 534.46 1118.53 528.39 1122"/><polygon class="cls-2" points="298.9 52.11 298.9 126.61 315.68 136.2 315.8 61.77 298.9 52.11"/><polygon class="cls-2" points="323.3 66.05 323.18 140.49 340.03 150.12 340.02 75.61 323.3 66.05"/><polygon class="cls-2" points="298.9 205.68 311.95 198.22 298.9 190.77 298.9 205.68"/><polygon class="cls-2" points="298.9 182.19 319.46 193.94 336.26 184.33 298.9 162.98 298.9 182.19"/><polygon class="cls-2" points="298.9 154.4 343.77 180.04 360.58 170.44 298.9 135.19 298.9 154.4"/><polygon class="cls-2" points="347.53 79.9 347.53 154.41 364.25 163.96 364.25 89.46 347.53 79.9"/><polygon class="cls-2" points="582.78 43.42 582.78 0 566.22 0 566.3 52.84 582.78 43.42"/><polygon class="cls-2" points="371.76 93.75 371.76 168.25 388.73 177.95 388.73 103.44 371.76 93.75"/><polygon class="cls-2" points="396.23 107.73 396.23 182.24 412.88 191.75 412.88 117.25 396.23 107.73"/><polygon class="cls-2" points="558.8 57.13 558.71 0 541.96 0 541.96 66.75 558.8 57.13"/><polygon class="cls-2" points="420.39 121.53 420.39 196.04 437.18 205.63 437.18 131.13 420.39 121.53"/><polygon class="cls-2" points="582.78 122.16 582.78 107.58 570.02 114.86 582.78 122.16"/><polygon class="cls-2" points="562.52 110.58 582.78 99 582.78 79.79 545.71 100.97 562.52 110.58"/><polygon class="cls-2" points="538.2 96.68 582.78 71.21 582.78 52 521.4 87.08 538.2 96.68"/><polygon class="cls-2" points="517.73 80.6 534.45 71.04 534.45 0 528.39 0 517.73 6.09 517.73 80.6"/><polygon class="cls-2" points="510.22 84.88 510.22 10.38 493.25 20.08 493.25 94.58 510.22 84.88"/><polygon class="cls-2" points="469.1 34 469.1 108.38 485.75 98.87 485.75 24.53 469.1 34"/><path class="cls-2" d="M420.47,59.55v0h0V113l16.8,9.6V47.87l-16.81-9.61Z"/><polygon class="cls-2" points="461.59 38.27 444.78 47.83 444.78 122.27 461.59 112.67 461.59 38.27"/><polygon class="cls-2" points="298.9 24.32 298.9 43.53 412.97 108.71 412.97 89.51 298.9 24.32"/><polygon class="cls-2" points="412.97 80.93 412.96 61.72 304.96 0 298.9 0 298.9 15.74 412.97 80.93"/><path class="cls-2" d="M413,34,366.13,7.21a2.49,2.49,0,0,1-.43-.29L353.59,0H320l93,53.14Z"/><polygon class="cls-2" points="388.73 11.54 388.73 0 371.76 0 371.76 1.85 388.73 11.54"/><polygon class="cls-2" points="412.88 25.35 412.88 0 396.23 0 396.23 15.84 412.88 25.35"/><polygon class="cls-2" points="461.5 29.64 461.51 0 444.7 0 444.7 39.24 461.5 29.64"/><polygon class="cls-2" points="437.2 39.24 437.2 0 420.39 0 420.39 29.64 437.2 39.24"/><polygon class="cls-2" points="469.01 25.35 513.38 0 479.76 0 469.01 6.14 469.01 25.35"/><path class="cls-2" d="M315.8,225.79a3.71,3.71,0,0,1,1.88-3.22l48.7-27.68a3.8,3.8,0,0,1,3.75,0l46.59,26.77,16.76-9.58-65.4-37.36-69.19,39.54v79.07l16.78,9.59Z"/><path class="cls-2" d="M340,239.91a3.72,3.72,0,0,1,1.88-3.22l24.32-13.89a3.75,3.75,0,0,1,3.75,0l22.4,12.8c5.47-3.13,11.27-6.45,16.87-9.64l-41-23.55L323.3,228l-.13,79.26L340,316.84Z"/><polygon class="cls-2" points="298.9 372.22 311.78 364.86 298.9 357.49 298.9 372.22"/><polygon class="cls-2" points="298.89 348.91 319.29 360.57 336.1 350.96 298.89 329.7 298.89 348.91"/><polygon class="cls-2" points="298.89 321.12 343.6 346.68 360.41 337.07 298.89 301.92 298.89 321.12"/><path class="cls-2" d="M364.25,253.8a3.71,3.71,0,0,1,1.92-3.24l18.68-10.67-16.76-9.58-20.57,11.74v79.08l16.72,9.56Z"/><path class="cls-2" d="M315.8,392.32a3.7,3.7,0,0,1,1.89-3.21l48.69-27.68a3.79,3.79,0,0,1,3.76,0l46.59,26.77,16.54-9.46-65.39-37.37-69,39.42v79.07l16.78,9.59Z"/><path class="cls-2" d="M340,406.44a3.71,3.71,0,0,1,1.88-3.21l24.32-13.9a3.8,3.8,0,0,1,3.75,0l22.39,12.8,16.87-9.64-41-23.55-44.93,25.54-.13,79.27L340,483.38Z"/><polygon class="cls-2" points="298.9 539.05 312.05 531.54 298.9 524.03 298.9 539.05"/><polygon class="cls-2" points="298.9 515.45 319.56 527.25 336.37 517.65 298.9 496.24 298.9 515.45"/><polygon class="cls-2" points="298.9 487.66 343.87 513.36 360.68 503.75 298.9 468.45 298.9 487.66"/><path class="cls-2" d="M364.26,420.34a3.69,3.69,0,0,1,1.91-3.24l18.69-10.68-16.77-9.58-20.56,11.75v79.08l16.73,9.55Z"/><polygon class="cls-2" points="510.22 706.69 510.22 676.92 493.25 686.62 493.25 716.38 510.22 706.69"/><path class="cls-2" d="M315.8,559.16a3.72,3.72,0,0,1,1.89-3.22l48.69-27.68a3.82,3.82,0,0,1,3.76,0L416.73,555l16.75-9.58L368.09,508.1,298.9,547.64v79.07l16.78,9.59Z"/><polygon class="cls-2" points="469.1 700.54 469.1 730.18 485.75 720.67 485.75 691.07 469.1 700.54"/><path class="cls-2" d="M437.19,750.56a3.85,3.85,0,0,1,.09-.76V714.41l-16.81-9.61v21.31h0v53.42l16.71,9.55Z"/><path class="cls-2" d="M340,573.28a3.72,3.72,0,0,1,1.88-3.22l24.32-13.89a3.75,3.75,0,0,1,3.75,0L392.36,569l16.87-9.64-41-23.55-44.93,25.54-.13,79.26L340,650.21Z"/><polygon class="cls-2" points="461.59 704.81 444.78 714.37 444.78 744.07 461.59 734.47 461.59 704.81"/><polygon class="cls-2" points="412.97 756.05 298.9 690.86 298.9 710.07 412.97 775.25 412.97 756.05"/><polygon class="cls-2" points="412.97 747.47 412.96 728.26 298.9 663.07 298.9 682.28 412.97 747.47"/><path class="cls-2" d="M413,719.68V700.51l-46.83-26.76a3.23,3.23,0,0,1-.43-.29l-66.8-38.17v19.2Z"/><path class="cls-2" d="M364.26,587.17a3.7,3.7,0,0,1,1.91-3.24l18.69-10.67-16.77-9.58-20.56,11.74V654.5l16.73,9.56Z"/><path class="cls-2" d="M315.8,847.59a3.72,3.72,0,0,1,1.89-3.22l48.69-27.68a3.82,3.82,0,0,1,3.76,0l46.59,26.77,16.75-9.58-65.39-37.36L298.9,836.07v79.07l16.78,9.59Z"/><path class="cls-2" d="M340,861.71a3.71,3.71,0,0,1,1.88-3.22l24.32-13.89a3.75,3.75,0,0,1,3.75,0l22.39,12.8,16.87-9.65-41-23.55-44.93,25.54L323.18,929,340,938.64Z"/><polygon class="cls-2" points="298.9 994.51 312.22 986.9 298.9 979.29 298.9 994.51"/><polygon class="cls-2" points="298.9 970.71 319.73 982.61 336.54 973.01 298.9 951.5 298.9 970.71"/><polygon class="cls-2" points="298.9 942.92 344.04 968.72 360.85 959.12 298.9 923.72 298.9 942.92"/><path class="cls-2" d="M364.26,875.6a3.7,3.7,0,0,1,1.91-3.24l18.69-10.68-16.77-9.58-20.56,11.75v79.08l16.73,9.56Z"/><path class="cls-2" d="M368.09,963.56,298.9,1003.1v79.07l16.78,9.59.12-77.14a3.72,3.72,0,0,1,1.89-3.22l48.69-27.67a3.79,3.79,0,0,1,3.76,0l46.59,26.77,16.75-9.57Z"/><path class="cls-2" d="M323.31,1016.78l-.13,79.26,16.85,9.63v-76.93a3.72,3.72,0,0,1,1.88-3.22l24.32-13.89a3.77,3.77,0,0,1,3.75,0l22.39,12.8,16.87-9.64-41-23.55Z"/><polygon class="cls-2" points="298.9 1122 304.96 1122 298.9 1118.54 298.9 1122"/><polygon class="cls-2" points="298.9 1109.95 319.98 1122 353.59 1122 298.9 1090.75 298.9 1109.95"/><path class="cls-2" d="M347.53,1030.88V1110l16.73,9.56v-76.89a3.7,3.7,0,0,1,1.91-3.24l18.69-10.67-16.77-9.58Z"/><polygon class="cls-2" points="566.3 1008.4 582.78 998.98 582.78 923.89 566.18 933.37 566.3 1008.4"/><path class="cls-2" d="M388.73,1056.75v0a4.62,4.62,0,0,1,.06-.64c0-.06,0-.11,0-.17a4.62,4.62,0,0,1,.19-.6l0-.08a3.29,3.29,0,0,1,.26-.49l.1-.14a3.64,3.64,0,0,1,.4-.48l0,0a4.14,4.14,0,0,1,.46-.37l.15-.1.13-.09,71-40.83,0-19.52-17.63,10.07a3.73,3.73,0,0,1-1.06.91l-71.06,40.61V1122h17Z"/><polygon class="cls-2" points="396.23 1063.17 396.23 1122 412.88 1122 412.88 1072.64 396.23 1063.17"/><polygon class="cls-2" points="558.8 1012.68 558.68 937.66 541.96 947.21 541.96 1022.31 558.8 1012.68"/><path class="cls-2" d="M461.51,1098.21v-25.64l-22.44-12.83a3.7,3.7,0,0,1,0-6.43l46.76-26.72v-47.3L469,988.9l0,25.94a3.71,3.71,0,0,1-1.87,3.22L400,1056.73l18.24,10.37a3.39,3.39,0,0,1,.56.32l24,13.67a3.7,3.7,0,0,1,1.88,3.22V1122h16.81v-23.78Z"/><polygon class="cls-2" points="420.39 1076.91 420.39 1122 437.19 1122 437.2 1122 437.2 1086.46 420.39 1076.91"/><path class="cls-2" d="M491.46,1032l-43,24.57,16.81,9.6,44.87-25.64V965.4L493.33,975v53.74A3.71,3.71,0,0,1,491.46,1032Z"/><polygon class="cls-2" points="582.78 1082.34 582.78 1063.13 479.76 1122 485.83 1122 493.33 1122 499.89 1122 513.38 1122 582.78 1082.34"/><polygon class="cls-2" points="469.02 1100.36 469.01 1119.56 582.78 1054.55 582.78 1035.34 469.02 1100.36"/><polygon class="cls-2" points="469.02 1072.57 469.02 1091.78 582.78 1026.76 582.78 1007.56 469.02 1072.57"/><polygon class="cls-2" points="534.45 1026.6 534.46 951.5 517.65 961.11 517.65 1036.2 534.45 1026.6"/><path class="cls-2" d="M513.89,91.37l-69.2,39.53v81.22a3.72,3.72,0,0,1-1.88,3.22L371.75,256V335l17,9.69V267.9a3.48,3.48,0,0,1,.07-.64l0-.17a4.18,4.18,0,0,1,.19-.6s0-.05,0-.08a3.36,3.36,0,0,1,.27-.49l.09-.14a3.64,3.64,0,0,1,.4-.48l0,0a2.76,2.76,0,0,1,.46-.37.71.71,0,0,1,.14-.1,1.1,1.1,0,0,1,.14-.09l70.94-40.83-.12-81.22a3.71,3.71,0,0,1,1.87-3.22l48.56-27.9a3.77,3.77,0,0,1,3.75,0l48.7,27.68a3.71,3.71,0,0,1,1.88,3.21l.13,77.15,16.48-9.42V130.73Z"/><polygon class="cls-2" points="412.88 283.81 396.23 274.34 396.23 349 412.88 358.52 412.88 283.81"/><path class="cls-2" d="M558.67,144.58,513.73,119l-44.81,25.75L469,226a3.74,3.74,0,0,1-1.86,3.22L400,267.9l18.24,10.37a3.39,3.39,0,0,1,.56.32l22,12.51,16.82-9.6-18.52-10.59a3.69,3.69,0,0,1,0-6.43l46.75-26.72V156.55a2.56,2.56,0,0,1,0-.39v-.09a4.29,4.29,0,0,1,.14-.62l.06-.16a3.73,3.73,0,0,1,.66-1.14l.11-.12a3.89,3.89,0,0,1,.47-.44l.08,0a1.9,1.9,0,0,1,.33-.22L512,139.44a3.77,3.77,0,0,1,3.76,0l24.32,13.89a3.71,3.71,0,0,1,1.88,3.22v76.93l16.85-9.63Z"/><polygon class="cls-2" points="437.19 297.63 420.38 288.08 420.38 362.81 437.19 372.41 437.19 297.63"/><path class="cls-2" d="M510.13,172.58l-16.8-9.6v76.93a3.72,3.72,0,0,1-1.88,3.22l-43,24.57,16.64,9.51,45-25.74Z"/><polygon class="cls-2" points="582.78 288.69 582.78 274.3 570.19 281.49 582.78 288.69"/><polygon class="cls-2" points="562.68 277.2 582.78 265.72 582.78 246.51 545.88 267.6 562.68 277.2"/><polygon class="cls-2" points="538.37 263.31 582.78 237.93 582.78 218.72 521.57 253.71 538.37 263.31"/><path class="cls-2" d="M534.45,158.69l-20.57-11.75-16.8,9.61,18.68,10.67a3.7,3.7,0,0,1,1.88,3.22v76.93l16.8-9.6Z"/><path class="cls-2" d="M513.89,257.9,444.7,297.44v81.22a3.71,3.71,0,0,1-1.88,3.21l-71.06,40.61v79.07l17,9.7v-76.8h0a4.48,4.48,0,0,1,.06-.64c0-.06,0-.12,0-.17a3.82,3.82,0,0,1,.19-.6.2.2,0,0,1,0-.08,2.87,2.87,0,0,1,.26-.49l.1-.14a3.72,3.72,0,0,1,.4-.49l0,0a3.32,3.32,0,0,1,.46-.38l.15-.1.13-.09,71-40.83-.13-81.22a3.75,3.75,0,0,1,1.87-3.22l48.57-27.9a3.77,3.77,0,0,1,3.75,0l48.69,27.67a3.7,3.7,0,0,1,1.89,3.22l.12,77.14,16.48-9.42V297.26Z"/><polygon class="cls-2" points="412.88 450.34 396.23 440.87 396.23 515.54 412.88 525.05 412.88 450.34"/><path class="cls-2" d="M558.68,311.12l-44.94-25.54-44.82,25.74.13,81.22a3.71,3.71,0,0,1-1.87,3.22L400,434.43l18.24,10.38a2.8,2.8,0,0,1,.56.32L441,457.78l16.81-9.6-18.78-10.73a3.71,3.71,0,0,1,0-6.44l46.76-26.71V323.08c0-.13,0-.26,0-.38s0-.07,0-.1A4.15,4.15,0,0,1,486,322a1.42,1.42,0,0,0,.05-.16,3.9,3.9,0,0,1,.67-1.15l.11-.12a3.8,3.8,0,0,1,.47-.43l.08-.05a3.62,3.62,0,0,1,.32-.22L512,306a3.8,3.8,0,0,1,3.75,0l24.33,13.89a3.71,3.71,0,0,1,1.87,3.22V400l16.84-9.62Z"/><polygon class="cls-2" points="437.19 464.16 420.39 454.61 420.39 529.34 437.19 538.94 437.19 464.16"/><path class="cls-2" d="M510.14,339.12l-16.81-9.61v76.93a3.7,3.7,0,0,1-1.87,3.22l-43,24.57,16.81,9.61,44.87-25.65Z"/><polygon class="cls-2" points="582.78 455.52 582.78 440.83 569.93 448.18 582.78 455.52"/><polygon class="cls-2" points="562.42 443.89 582.78 432.25 582.78 413.05 545.62 434.29 562.42 443.89"/><polygon class="cls-2" points="538.11 430 582.78 404.47 582.78 385.26 521.3 420.39 538.11 430"/><path class="cls-2" d="M534.46,325.23l-20.57-11.75-16.8,9.6,18.68,10.68a3.71,3.71,0,0,1,1.88,3.21V413.9l16.8-9.6Z"/><path class="cls-2" d="M513.89,424.74,444.7,464.27v81.22a3.72,3.72,0,0,1-1.88,3.22l-71.06,40.61v79.07l17,9.69V601.27a4.62,4.62,0,0,1,.06-.64c0-.06,0-.11,0-.17a4.18,4.18,0,0,1,.19-.6l0-.08a3.29,3.29,0,0,1,.26-.49l.1-.14a3.64,3.64,0,0,1,.4-.48l0,0a3.24,3.24,0,0,1,.46-.37l.15-.1.13-.09,71-40.83L461.41,476a3.73,3.73,0,0,1,1.87-3.22l48.57-27.9a3.77,3.77,0,0,1,3.75,0l48.69,27.68a3.7,3.7,0,0,1,1.89,3.21l.12,77.15,16.48-9.42V464.1Z"/><polygon class="cls-2" points="412.88 617.18 396.23 607.71 396.23 682.37 412.88 691.89 412.88 617.18"/><path class="cls-2" d="M558.68,478l-44.94-25.54-44.82,25.75.13,81.22a3.73,3.73,0,0,1-1.87,3.22L400,601.27l18.24,10.37a4.3,4.3,0,0,1,.56.32l24,13.67a3.7,3.7,0,0,1,1.88,3.22v76.93l16.81-9.6V642.76h0V617.11l-22.44-12.83a3.7,3.7,0,0,1,0-6.43l46.76-26.72V489.92c0-.13,0-.26,0-.39s0-.06,0-.09a4.29,4.29,0,0,1,.14-.62.75.75,0,0,0,.05-.16,4,4,0,0,1,.67-1.14l.11-.12a3.89,3.89,0,0,1,.47-.44l.08,0a2.27,2.27,0,0,1,.32-.22L512,472.81a3.75,3.75,0,0,1,3.75,0l24.33,13.89a3.7,3.7,0,0,1,1.87,3.22v76.93l16.84-9.63Z"/><polygon class="cls-2" points="437.2 631 420.39 621.45 420.39 696.18 437.2 705.78 437.2 631"/><path class="cls-2" d="M510.14,506l-16.81-9.6v76.93a3.71,3.71,0,0,1-1.87,3.22l-43,24.57,16.81,9.6L510.14,585Z"/><polygon class="cls-2" points="469.01 672.68 469.01 691.89 582.78 626.88 582.78 607.67 469.01 672.68"/><polygon class="cls-2" points="469.02 644.89 469.01 664.1 582.78 599.09 582.78 579.88 469.02 644.89"/><polygon class="cls-2" points="469.02 617.11 469.02 636.31 582.78 571.3 582.78 552.1 469.02 617.11"/><path class="cls-2" d="M534.46,492.06l-20.57-11.75-16.8,9.61,18.68,10.67a3.72,3.72,0,0,1,1.88,3.22v76.93l16.8-9.6Z"/><path class="cls-2" d="M513.89,713.17,444.7,752.7v81.22a3.72,3.72,0,0,1-1.88,3.22l-71.06,40.61v79.07l17,9.69V889.7a4.48,4.48,0,0,1,.06-.64c0-.06,0-.11,0-.17a4.18,4.18,0,0,1,.19-.6l0-.08a3.29,3.29,0,0,1,.26-.49l.1-.14a3.64,3.64,0,0,1,.4-.48l0,0a4.22,4.22,0,0,1,.46-.38l.15-.09.13-.09,71-40.83-.13-81.22a3.72,3.72,0,0,1,1.87-3.22l48.57-27.9a3.77,3.77,0,0,1,3.75,0L564.29,761a3.68,3.68,0,0,1,1.89,3.21l.12,77.14L582.78,832V752.53Z"/><polygon class="cls-2" points="412.88 905.61 396.23 896.14 396.23 970.8 412.88 980.32 412.88 905.61"/><path class="cls-2" d="M558.68,766.38l-44.94-25.54-44.82,25.75.13,81.22a3.73,3.73,0,0,1-1.87,3.22L400,889.7l18.24,10.37a3.39,3.39,0,0,1,.56.32l24,13.67a3.69,3.69,0,0,1,1.88,3.22v76.93l16.81-9.6V931.19h0V905.53l-22.44-12.82a3.7,3.7,0,0,1,0-6.43l46.76-26.72V778.34c0-.13,0-.25,0-.38s0-.06,0-.09a4.29,4.29,0,0,1,.14-.62.75.75,0,0,0,.05-.16,3.85,3.85,0,0,1,.67-1.14l.11-.13a4.79,4.79,0,0,1,.47-.43l.08,0a3.53,3.53,0,0,1,.32-.21L512,761.23a3.8,3.8,0,0,1,3.75,0l24.33,13.9a3.7,3.7,0,0,1,1.87,3.22v76.93l16.84-9.63Z"/><polygon class="cls-2" points="437.2 919.43 420.39 909.87 420.39 984.61 437.2 994.21 437.2 919.43"/><path class="cls-2" d="M510.14,794.38l-16.81-9.6v76.93a3.7,3.7,0,0,1-1.87,3.21l-43,24.58,16.81,9.6,44.87-25.64Z"/><polygon class="cls-2" points="469.01 961.11 469.01 980.32 582.78 915.31 582.78 896.1 469.01 961.11"/><polygon class="cls-2" points="469.02 933.32 469.01 952.53 582.78 887.52 582.78 868.31 469.02 933.32"/><polygon class="cls-2" points="469.02 905.53 469.02 924.74 582.78 859.73 582.78 840.53 469.02 905.53"/><path class="cls-2" d="M534.46,780.49l-20.57-11.75-16.8,9.6L515.77,789a3.72,3.72,0,0,1,1.88,3.22v76.93l16.8-9.6Z"/><polygon class="cls-2" points="7.51 718.65 7.51 793.33 24.29 802.91 24.41 728.3 7.51 718.65"/><polygon class="cls-2" points="31.91 732.59 31.79 807.2 37.4 810.41 48.63 803.99 48.63 742.15 31.91 732.59"/><polygon class="cls-2" points="7.51 821.11 13.09 824.3 29.89 814.7 7.51 801.91 7.51 821.11"/><polygon class="cls-2" points="56.14 746.44 56.14 799.7 72.86 790.14 72.86 756 56.14 746.44"/><polygon class="cls-2" points="274.91 719.55 291.39 710.14 291.39 635.46 274.79 644.94 274.91 719.55"/><polygon class="cls-2" points="80.37 760.28 80.37 790.05 97.34 799.74 97.34 769.98 80.37 760.28"/><polygon class="cls-2" points="104.84 774.33 104.84 804.03 121.49 813.54 121.49 783.79 104.84 774.33"/><polygon class="cls-2" points="261.8 727.04 267.41 723.84 267.29 649.23 250.57 658.78 250.57 720.62 261.8 727.04"/><polygon class="cls-2" points="145.8 797.67 129 788.07 129 817.83 145.8 827.43 145.8 797.67"/><polygon class="cls-2" points="286.12 740.93 291.39 737.92 291.39 718.72 269.31 731.33 286.12 740.93"/><polygon class="cls-2" points="243.06 716.33 243.06 663.07 226.34 672.63 226.34 706.78 243.06 716.33"/><polygon class="cls-2" points="291.39 1090.92 274.79 1100.4 274.83 1122 291.39 1122 291.39 1090.92"/><polygon class="cls-2" points="250.57 1114.24 250.57 1122 267.32 1122 267.29 1104.69 250.57 1114.24"/><polygon class="cls-2" points="237 1122 243.06 1122 243.06 1118.53 237 1122"/><polygon class="cls-2" points="7.51 52.11 7.51 126.61 24.29 136.2 24.41 61.77 7.51 52.11"/><polygon class="cls-2" points="31.91 66.05 31.79 140.49 48.64 150.12 48.63 75.61 31.91 66.05"/><polygon class="cls-2" points="7.51 205.68 20.56 198.22 7.51 190.77 7.51 205.68"/><polygon class="cls-2" points="7.51 182.19 28.07 193.94 44.87 184.33 7.51 162.98 7.51 182.19"/><polygon class="cls-2" points="7.51 154.4 52.38 180.04 69.19 170.44 7.51 135.19 7.51 154.4"/><polygon class="cls-2" points="56.14 79.9 56.14 154.41 72.86 163.96 72.86 89.46 56.14 79.9"/><polygon class="cls-2" points="291.39 43.42 291.39 0 274.83 0 274.91 52.84 291.39 43.42"/><polygon class="cls-2" points="80.37 93.75 80.37 168.25 97.34 177.95 97.34 103.44 80.37 93.75"/><polygon class="cls-2" points="104.84 107.73 104.84 182.24 121.49 191.75 121.49 117.25 104.84 107.73"/><polygon class="cls-2" points="267.41 57.13 267.32 0 250.57 0 250.56 66.75 267.41 57.13"/><polygon class="cls-2" points="129 121.53 129 196.04 145.79 205.63 145.79 131.13 129 121.53"/><polygon class="cls-2" points="291.39 122.16 291.39 107.58 278.63 114.86 291.39 122.16"/><polygon class="cls-2" points="271.13 110.58 291.39 99 291.39 79.79 254.32 100.97 271.13 110.58"/><polygon class="cls-2" points="246.81 96.68 291.39 71.21 291.39 52 230.01 87.08 246.81 96.68"/><polygon class="cls-2" points="226.34 80.6 243.06 71.04 243.06 0 237 0 226.34 6.09 226.34 80.6"/><polygon class="cls-2" points="218.83 84.88 218.83 10.38 201.86 20.08 201.86 94.58 218.83 84.88"/><polygon class="cls-2" points="177.71 34 177.71 108.38 194.36 98.87 194.36 24.53 177.71 34"/><path class="cls-2" d="M129.08,59.55v0h0V113l16.8,9.6V47.87l-16.81-9.61Z"/><polygon class="cls-2" points="170.2 38.27 153.39 47.83 153.39 122.27 170.2 112.67 170.2 38.27"/><polygon class="cls-2" points="7.51 24.32 7.51 43.53 121.58 108.71 121.58 89.51 7.51 24.32"/><polygon class="cls-2" points="121.58 80.93 121.58 61.72 13.57 0 7.51 0 7.51 15.74 121.58 80.93"/><path class="cls-2" d="M121.57,34,74.74,7.21a2.49,2.49,0,0,1-.43-.29L62.2,0H28.59l93,53.14Z"/><polygon class="cls-2" points="97.34 11.54 97.34 0 80.37 0 80.37 1.85 97.34 11.54"/><polygon class="cls-2" points="121.49 25.35 121.49 0 104.84 0 104.84 15.84 121.49 25.35"/><polygon class="cls-2" points="170.12 29.64 170.12 0 153.31 0 153.31 39.24 170.12 29.64"/><polygon class="cls-2" points="145.81 39.24 145.81 0 129 0 129 29.64 145.81 39.24"/><polygon class="cls-2" points="177.62 25.35 221.99 0 188.37 0 177.62 6.14 177.62 25.35"/><path class="cls-2" d="M24.41,225.79a3.71,3.71,0,0,1,1.88-3.22L75,194.89a3.8,3.8,0,0,1,3.75,0l46.59,26.77,16.76-9.58-65.4-37.36L7.5,214.27v79.07l16.78,9.59Z"/><path class="cls-2" d="M48.62,239.91a3.72,3.72,0,0,1,1.88-3.22L74.82,222.8a3.75,3.75,0,0,1,3.75,0L101,235.6,117.83,226l-41-23.55L31.91,228l-.13,79.26,16.85,9.63Z"/><polygon class="cls-2" points="7.51 372.22 20.39 364.86 7.51 357.49 7.51 372.22"/><polygon class="cls-2" points="7.5 348.91 27.9 360.57 44.71 350.96 7.5 329.7 7.5 348.91"/><polygon class="cls-2" points="7.5 321.12 52.21 346.68 69.02 337.07 7.5 301.92 7.5 321.12"/><path class="cls-2" d="M72.86,253.8a3.71,3.71,0,0,1,1.92-3.24l18.68-10.67L76.7,230.31,56.13,242.05v79.08l16.72,9.56Z"/><path class="cls-2" d="M24.41,392.32a3.68,3.68,0,0,1,1.89-3.21L75,361.43a3.79,3.79,0,0,1,3.76,0l46.59,26.77,16.54-9.46L76.49,341.38l-69,39.42v79.07l16.78,9.59Z"/><path class="cls-2" d="M48.63,406.44a3.69,3.69,0,0,1,1.88-3.21l24.32-13.9a3.8,3.8,0,0,1,3.75,0L101,402.13l16.87-9.64-41-23.55L31.92,394.48l-.13,79.27,16.85,9.63Z"/><polygon class="cls-2" points="7.51 539.05 20.66 531.54 7.51 524.03 7.51 539.05"/><polygon class="cls-2" points="7.51 515.45 28.17 527.25 44.98 517.65 7.51 496.24 7.51 515.45"/><polygon class="cls-2" points="7.51 487.66 52.48 513.36 69.29 503.75 7.51 468.45 7.51 487.66"/><path class="cls-2" d="M72.86,420.34a3.7,3.7,0,0,1,1.92-3.24l18.69-10.68L76.7,396.84,56.14,408.59v79.08l16.72,9.55Z"/><polygon class="cls-2" points="218.83 706.69 218.83 676.92 201.86 686.62 201.86 716.38 218.83 706.69"/><path class="cls-2" d="M24.41,559.16a3.7,3.7,0,0,1,1.89-3.22L75,528.26a3.82,3.82,0,0,1,3.76,0L125.34,555l16.75-9.58L76.7,508.1,7.51,547.64v79.07l16.78,9.59Z"/><polygon class="cls-2" points="177.71 700.54 177.71 730.18 194.36 720.67 194.36 691.07 177.71 700.54"/><path class="cls-2" d="M145.8,750.56a3.22,3.22,0,0,1,.09-.76V714.41l-16.81-9.61v21.31h0v53.42l16.71,9.55Z"/><path class="cls-2" d="M48.63,573.28a3.7,3.7,0,0,1,1.88-3.22l24.32-13.89a3.75,3.75,0,0,1,3.75,0L101,569l16.87-9.64-41-23.55L31.92,561.32l-.13,79.26,16.85,9.63Z"/><polygon class="cls-2" points="170.2 704.81 153.39 714.37 153.39 744.07 170.2 734.47 170.2 704.81"/><polygon class="cls-2" points="121.58 756.05 7.51 690.86 7.51 710.07 121.58 775.25 121.58 756.05"/><polygon class="cls-2" points="121.58 747.47 121.58 728.26 7.51 663.07 7.51 682.28 121.58 747.47"/><path class="cls-2" d="M121.57,719.68V700.51L74.74,673.75a3.23,3.23,0,0,1-.43-.29L7.51,635.29v19.2Z"/><path class="cls-2" d="M72.86,587.17a3.71,3.71,0,0,1,1.92-3.24l18.69-10.67L76.7,563.68,56.14,575.42V654.5l16.72,9.56Z"/><path class="cls-2" d="M24.41,847.59a3.7,3.7,0,0,1,1.89-3.22L75,816.69a3.82,3.82,0,0,1,3.76,0l46.59,26.77,16.75-9.58L76.7,796.53,7.51,836.07v79.07l16.78,9.59Z"/><path class="cls-2" d="M48.63,861.71a3.69,3.69,0,0,1,1.88-3.22L74.83,844.6a3.75,3.75,0,0,1,3.75,0L101,857.4l16.87-9.65-41-23.55L31.92,849.74,31.79,929l16.85,9.63Z"/><polygon class="cls-2" points="7.51 994.51 20.83 986.9 7.51 979.29 7.51 994.51"/><polygon class="cls-2" points="7.51 970.71 28.34 982.61 45.15 973.01 7.51 951.5 7.51 970.71"/><polygon class="cls-2" points="7.51 942.92 52.65 968.72 69.46 959.12 7.51 923.72 7.51 942.92"/><path class="cls-2" d="M72.86,875.6a3.71,3.71,0,0,1,1.92-3.24l18.69-10.68L76.7,852.1,56.14,863.85v79.08l16.72,9.56Z"/><path class="cls-2" d="M76.7,963.56,7.51,1003.1v79.07l16.78,9.59.12-77.14a3.7,3.7,0,0,1,1.89-3.22L75,983.73a3.79,3.79,0,0,1,3.76,0l46.59,26.77,16.75-9.57Z"/><path class="cls-2" d="M31.92,1016.78,31.79,1096l16.85,9.63v-76.93a3.7,3.7,0,0,1,1.88-3.22l24.32-13.89a3.77,3.77,0,0,1,3.75,0l22.39,12.8,16.87-9.64-41-23.55Z"/><polygon class="cls-2" points="7.51 1122 13.57 1122 7.51 1118.54 7.51 1122"/><polygon class="cls-2" points="7.51 1109.95 28.59 1122 62.2 1122 7.51 1090.75 7.51 1109.95"/><path class="cls-2" d="M56.14,1030.88V1110l16.72,9.56v-76.89a3.71,3.71,0,0,1,1.92-3.24l18.69-10.67-16.77-9.58Z"/><polygon class="cls-2" points="274.91 1008.4 291.39 998.98 291.39 923.89 274.79 933.37 274.91 1008.4"/><path class="cls-2" d="M97.34,1056.75v0a4.62,4.62,0,0,1,.06-.64,1,1,0,0,1,0-.17,3.47,3.47,0,0,1,.19-.6l0-.08a3.29,3.29,0,0,1,.26-.49l.1-.14a3.64,3.64,0,0,1,.4-.48l0,0a4.14,4.14,0,0,1,.46-.37l.15-.1.13-.09,71-40.83,0-19.52-17.63,10.07a3.88,3.88,0,0,1-1.06.91l-71.06,40.61V1122h17Z"/><polygon class="cls-2" points="104.84 1063.17 104.84 1122 121.49 1122 121.49 1072.64 104.84 1063.17"/><polygon class="cls-2" points="267.41 1012.68 267.29 937.66 250.57 947.21 250.56 1022.31 267.41 1012.68"/><path class="cls-2" d="M170.12,1098.21v-25.64l-22.44-12.83a3.7,3.7,0,0,1,0-6.43l46.76-26.72v-47.3l-16.82,9.61,0,25.94a3.71,3.71,0,0,1-1.87,3.22l-67.2,38.67,18.24,10.37a4.48,4.48,0,0,1,.56.32l24,13.67a3.7,3.7,0,0,1,1.88,3.22V1122h16.81v-23.78Z"/><polygon class="cls-2" points="129 1076.91 129 1122 145.8 1122 145.81 1122 145.81 1086.46 129 1076.91"/><path class="cls-2" d="M200.07,1032l-43,24.57,16.81,9.6,44.87-25.64V965.4L201.94,975v53.74A3.71,3.71,0,0,1,200.07,1032Z"/><polygon class="cls-2" points="291.39 1082.34 291.39 1063.13 188.37 1122 194.44 1122 201.94 1122 208.5 1122 221.99 1122 291.39 1082.34"/><polygon class="cls-2" points="177.63 1100.36 177.62 1119.56 291.39 1054.55 291.39 1035.34 177.63 1100.36"/><polygon class="cls-2" points="177.63 1072.57 177.63 1091.78 291.39 1026.76 291.39 1007.56 177.63 1072.57"/><polygon class="cls-2" points="243.06 1026.6 243.06 951.5 226.26 961.11 226.26 1036.2 243.06 1026.6"/><path class="cls-2" d="M222.5,91.37,153.3,130.9v81.22a3.72,3.72,0,0,1-1.88,3.22L80.36,256V335l17,9.69V267.9a3.48,3.48,0,0,1,.07-.64l0-.17a4.18,4.18,0,0,1,.19-.6s0-.05,0-.08a3.36,3.36,0,0,1,.27-.49l.09-.14a3.64,3.64,0,0,1,.4-.48l0,0a3.32,3.32,0,0,1,.47-.37.71.71,0,0,1,.14-.1,1.1,1.1,0,0,1,.14-.09l70.94-40.83L170,142.66a3.69,3.69,0,0,1,1.87-3.22l48.56-27.9a3.77,3.77,0,0,1,3.75,0l48.7,27.68a3.71,3.71,0,0,1,1.88,3.21l.13,77.15,16.48-9.42V130.73Z"/><polygon class="cls-2" points="121.49 283.81 104.84 274.34 104.84 349 121.49 358.52 121.49 283.81"/><path class="cls-2" d="M267.28,144.58,222.34,119l-44.81,25.75.12,81.22a3.73,3.73,0,0,1-1.87,3.22l-67.2,38.67,18.24,10.37a3.39,3.39,0,0,1,.56.32l22,12.51,16.81-9.6-18.51-10.59a3.69,3.69,0,0,1,0-6.43l46.75-26.72V156.55c0-.13,0-.26,0-.39a.28.28,0,0,0,0-.09,4.29,4.29,0,0,1,.14-.62l.06-.16a3.73,3.73,0,0,1,.66-1.14l.11-.12a3.89,3.89,0,0,1,.47-.44l.08,0a1.9,1.9,0,0,1,.33-.22l24.3-13.89a3.77,3.77,0,0,1,3.76,0l24.32,13.89a3.7,3.7,0,0,1,1.87,3.22v76.93l16.85-9.63Z"/><polygon class="cls-2" points="145.8 297.63 128.99 288.08 128.99 362.81 145.8 372.41 145.8 297.63"/><path class="cls-2" d="M218.74,172.58l-16.8-9.6v76.93a3.72,3.72,0,0,1-1.88,3.22l-43,24.57,16.64,9.51,45-25.74Z"/><polygon class="cls-2" points="291.39 288.69 291.39 274.3 278.8 281.49 291.39 288.69"/><polygon class="cls-2" points="271.29 277.2 291.39 265.72 291.39 246.51 254.49 267.6 271.29 277.2"/><polygon class="cls-2" points="246.98 263.31 291.39 237.93 291.39 218.72 230.18 253.71 246.98 263.31"/><path class="cls-2" d="M243.06,158.69l-20.57-11.75-16.8,9.61,18.68,10.67a3.72,3.72,0,0,1,1.88,3.22v76.93l16.8-9.6Z"/><path class="cls-2" d="M222.5,257.9l-69.19,39.54v81.22a3.71,3.71,0,0,1-1.88,3.21L80.37,422.48v79.07l17,9.7v-76.8h0a4.48,4.48,0,0,1,.06-.64.85.85,0,0,1,0-.17,3.82,3.82,0,0,1,.19-.6.2.2,0,0,1,0-.08,2.87,2.87,0,0,1,.26-.49.71.71,0,0,1,.1-.14,3.72,3.72,0,0,1,.4-.49l0,0a3.32,3.32,0,0,1,.46-.38l.15-.1.13-.09,71-40.83L170,309.19a3.73,3.73,0,0,1,1.87-3.22l48.56-27.9a3.79,3.79,0,0,1,3.76,0l48.69,27.67a3.7,3.7,0,0,1,1.89,3.22l.12,77.14,16.48-9.42V297.26Z"/><polygon class="cls-2" points="121.49 450.34 104.84 440.87 104.84 515.54 121.49 525.05 121.49 450.34"/><path class="cls-2" d="M267.29,311.12l-44.94-25.54-44.82,25.74.13,81.22a3.71,3.71,0,0,1-1.87,3.22l-67.2,38.67,18.24,10.38a2.8,2.8,0,0,1,.56.32l22.26,12.65,16.81-9.6-18.78-10.73a3.71,3.71,0,0,1,0-6.44l46.76-26.71V323.08c0-.13,0-.26,0-.38s0-.07,0-.1a4.15,4.15,0,0,1,.14-.61c0-.06,0-.11,0-.16a3.9,3.9,0,0,1,.67-1.15l.11-.12a3.8,3.8,0,0,1,.47-.43l.08-.05a3.62,3.62,0,0,1,.32-.22L220.62,306a3.8,3.8,0,0,1,3.75,0l24.32,13.89a3.7,3.7,0,0,1,1.88,3.22V400l16.85-9.62Z"/><polygon class="cls-2" points="145.8 464.16 129 454.61 129 529.34 145.8 538.94 145.8 464.16"/><path class="cls-2" d="M218.75,339.12l-16.81-9.61v76.93a3.7,3.7,0,0,1-1.87,3.22l-43,24.57,16.81,9.61,44.87-25.65Z"/><polygon class="cls-2" points="291.39 455.52 291.39 440.83 278.54 448.18 291.39 455.52"/><polygon class="cls-2" points="271.03 443.89 291.39 432.25 291.39 413.05 254.23 434.29 271.03 443.89"/><polygon class="cls-2" points="246.72 430 291.39 404.47 291.39 385.26 229.91 420.39 246.72 430"/><path class="cls-2" d="M243.06,325.23,222.5,313.48l-16.8,9.6,18.68,10.68a3.71,3.71,0,0,1,1.88,3.21V413.9l16.8-9.6Z"/><path class="cls-2" d="M222.5,424.74l-69.19,39.53v81.22a3.72,3.72,0,0,1-1.88,3.22L80.37,589.32v79.07l17,9.69V601.27a4.62,4.62,0,0,1,.06-.64,1,1,0,0,1,0-.17,4.18,4.18,0,0,1,.19-.6l0-.08a3.29,3.29,0,0,1,.26-.49l.1-.14a3.64,3.64,0,0,1,.4-.48l0,0a3.24,3.24,0,0,1,.46-.37l.15-.1.13-.09,71-40.83L170,476a3.71,3.71,0,0,1,1.87-3.22l48.56-27.9a3.79,3.79,0,0,1,3.76,0l48.69,27.68a3.7,3.7,0,0,1,1.89,3.21l.12,77.15,16.48-9.42V464.1Z"/><polygon class="cls-2" points="121.49 617.18 104.84 607.71 104.84 682.37 121.49 691.89 121.49 617.18"/><path class="cls-2" d="M267.29,478l-44.94-25.54-44.82,25.75.13,81.22a3.73,3.73,0,0,1-1.87,3.22l-67.2,38.67,18.24,10.37a4.3,4.3,0,0,1,.56.32l24,13.67a3.7,3.7,0,0,1,1.88,3.22v76.93l16.8-9.6V642.76h0V617.11l-22.44-12.83a3.7,3.7,0,0,1,0-6.43l46.76-26.72V489.92c0-.13,0-.26,0-.39s0-.06,0-.09a4.29,4.29,0,0,1,.14-.62c0-.05,0-.1,0-.16a4,4,0,0,1,.67-1.14l.11-.12a3.89,3.89,0,0,1,.47-.44l.08,0a2.27,2.27,0,0,1,.32-.22l24.31-13.89a3.75,3.75,0,0,1,3.75,0l24.32,13.89a3.69,3.69,0,0,1,1.88,3.22v76.93l16.85-9.63Z"/><polygon class="cls-2" points="145.81 631 129 621.45 129 696.18 145.81 705.78 145.81 631"/><path class="cls-2" d="M218.75,506l-16.81-9.6v76.93a3.71,3.71,0,0,1-1.87,3.22l-43,24.57,16.81,9.6L218.75,585Z"/><polygon class="cls-2" points="177.62 672.68 177.62 691.89 291.39 626.88 291.39 607.67 177.62 672.68"/><polygon class="cls-2" points="177.63 644.89 177.62 664.1 291.39 599.09 291.39 579.88 177.63 644.89"/><polygon class="cls-2" points="177.63 617.11 177.63 636.31 291.39 571.3 291.39 552.1 177.63 617.11"/><path class="cls-2" d="M243.06,492.06,222.5,480.31l-16.8,9.61,18.68,10.67a3.72,3.72,0,0,1,1.88,3.22v76.93l16.8-9.6Z"/><path class="cls-2" d="M222.5,713.17,153.31,752.7v81.22a3.72,3.72,0,0,1-1.88,3.22L80.37,877.75v79.07l17,9.69V889.7a4.48,4.48,0,0,1,.06-.64,1,1,0,0,1,0-.17,4.18,4.18,0,0,1,.19-.6l0-.08a3.29,3.29,0,0,1,.26-.49l.1-.14a3.64,3.64,0,0,1,.4-.48l0,0a4.22,4.22,0,0,1,.46-.38l.15-.09.13-.09,71-40.83L170,764.46a3.7,3.7,0,0,1,1.87-3.22l48.56-27.9a3.79,3.79,0,0,1,3.76,0L272.9,761a3.68,3.68,0,0,1,1.89,3.21l.12,77.14L291.39,832V752.53Z"/><polygon class="cls-2" points="121.49 905.61 104.84 896.14 104.84 970.8 121.49 980.32 121.49 905.61"/><path class="cls-2" d="M267.29,766.38l-44.94-25.54-44.82,25.75.13,81.22a3.73,3.73,0,0,1-1.87,3.22l-67.2,38.67,18.24,10.37a3.39,3.39,0,0,1,.56.32l24,13.67a3.69,3.69,0,0,1,1.88,3.22v76.93l16.8-9.6V931.19h0V905.53l-22.44-12.82a3.7,3.7,0,0,1,0-6.43l46.76-26.72V778.34c0-.13,0-.25,0-.38s0-.06,0-.09a4.29,4.29,0,0,1,.14-.62s0-.1,0-.16a3.85,3.85,0,0,1,.67-1.14l.11-.13a4.79,4.79,0,0,1,.47-.43l.08,0a3.53,3.53,0,0,1,.32-.21l24.31-13.9a3.8,3.8,0,0,1,3.75,0l24.32,13.9a3.69,3.69,0,0,1,1.88,3.22v76.93l16.85-9.63Z"/><polygon class="cls-2" points="145.81 919.43 129 909.87 129 984.61 145.81 994.21 145.81 919.43"/><path class="cls-2" d="M218.75,794.38l-16.81-9.6v76.93a3.7,3.7,0,0,1-1.87,3.21l-43,24.58,16.81,9.6,44.87-25.64Z"/><polygon class="cls-2" points="177.62 961.11 177.62 980.32 291.39 915.31 291.39 896.1 177.62 961.11"/><polygon class="cls-2" points="177.63 933.32 177.62 952.53 291.39 887.52 291.39 868.31 177.63 933.32"/><polygon class="cls-2" points="177.63 905.53 177.63 924.74 291.39 859.73 291.39 840.53 177.63 905.53"/><path class="cls-2" d="M243.06,780.49,222.5,768.74l-16.8,9.6L224.38,789a3.72,3.72,0,0,1,1.88,3.22v76.93l16.8-9.6Z"/><polygon class="cls-2" points="-16.48 719.55 0 710.14 0 635.46 -16.6 644.94 -16.48 719.55"/><polygon class="cls-2" points="-5.28 740.93 0 737.92 0 718.72 -22.08 731.33 -5.28 740.93"/><polygon class="cls-2" points="0 1090.92 -16.6 1100.4 -16.56 1122 0 1122 0 1090.92"/><polygon class="cls-2" points="0 43.42 0 0 -16.56 0 -16.48 52.84 0 43.42"/><polygon class="cls-2" points="0 122.16 0 107.58 -12.76 114.86 0 122.16"/><polygon class="cls-2" points="-20.26 110.58 0 99 0 79.79 -37.07 100.97 -20.26 110.58"/><polygon class="cls-2" points="-44.58 96.68 0 71.21 0 52 -61.38 87.08 -44.58 96.68"/><polygon class="cls-2" points="-16.48 1008.4 0 998.98 0 923.89 -16.6 933.37 -16.48 1008.4"/><polygon class="cls-2" points="0 1082.34 0 1063.13 -103.02 1122 -96.95 1122 -89.45 1122 -82.89 1122 -69.41 1122 0 1082.34"/><polygon class="cls-2" points="-113.76 1100.36 -113.77 1119.56 0 1054.55 0 1035.34 -113.76 1100.36"/><polygon class="cls-2" points="-113.76 1072.57 -113.76 1091.78 0 1026.76 0 1007.56 -113.76 1072.57"/><path class="cls-2" d="M-68.89,91.37l-69.2,39.53v81.22a3.72,3.72,0,0,1-1.88,3.22L-211,256V335l17,9.69V267.9a3.48,3.48,0,0,1,.07-.64l0-.17a4.18,4.18,0,0,1,.19-.6l0-.08a2.62,2.62,0,0,1,.27-.49l.09-.14a3.64,3.64,0,0,1,.4-.48l0,0a3.92,3.92,0,0,1,.46-.37l.15-.1a1.1,1.1,0,0,1,.14-.09l70.94-40.83-.12-81.22a3.69,3.69,0,0,1,1.87-3.22l48.56-27.9a3.77,3.77,0,0,1,3.75,0l48.7,27.68a3.71,3.71,0,0,1,1.88,3.21l.13,77.15L0,210.15V130.73Z"/><polygon class="cls-2" points="0 288.69 0 274.3 -12.59 281.49 0 288.69"/><polygon class="cls-2" points="-20.1 277.2 0 265.72 0 246.51 -36.9 267.6 -20.1 277.2"/><polygon class="cls-2" points="-44.41 263.31 0 237.93 0 218.72 -61.22 253.71 -44.41 263.31"/><path class="cls-2" d="M-68.89,257.9l-69.19,39.54v81.22a3.71,3.71,0,0,1-1.88,3.21L-211,422.48v79.07l17,9.7v-76.8h0a4.48,4.48,0,0,1,.06-.64.85.85,0,0,1,0-.17,2.47,2.47,0,0,1,.19-.6l0-.08a3.84,3.84,0,0,1,.27-.49.71.71,0,0,1,.1-.14,3.72,3.72,0,0,1,.4-.49l0,0a3.32,3.32,0,0,1,.46-.38l.15-.1.13-.09,71-40.83-.13-81.22A3.73,3.73,0,0,1-119.5,306l48.56-27.9a3.79,3.79,0,0,1,3.76,0l48.69,27.67A3.7,3.7,0,0,1-16.6,309l.12,77.14L0,376.68V297.26Z"/><polygon class="cls-2" points="0 455.52 0 440.83 -12.85 448.18 0 455.52"/><polygon class="cls-2" points="-20.36 443.89 0 432.25 0 413.05 -37.16 434.29 -20.36 443.89"/><polygon class="cls-2" points="-44.67 430 0 404.47 0 385.26 -61.48 420.39 -44.67 430"/><path class="cls-2" d="M-68.89,424.74l-69.19,39.53v81.22a3.72,3.72,0,0,1-1.88,3.22L-211,589.32v79.07l17,9.69V601.27a4.62,4.62,0,0,1,.06-.64,1,1,0,0,1,0-.17,2.61,2.61,0,0,1,.19-.6l0-.08a4.67,4.67,0,0,1,.27-.49l.1-.14a3.64,3.64,0,0,1,.4-.48l0,0a3.24,3.24,0,0,1,.46-.37l.15-.1.13-.09,71-40.83-.13-81.22a3.71,3.71,0,0,1,1.87-3.22l48.56-27.9a3.79,3.79,0,0,1,3.76,0l48.69,27.68a3.7,3.7,0,0,1,1.89,3.21l.12,77.15L0,543.52V464.1Z"/><polygon class="cls-2" points="-113.77 672.68 -113.77 691.89 0 626.88 0 607.67 -113.77 672.68"/><polygon class="cls-2" points="-113.76 644.89 -113.77 664.1 0 599.09 0 579.88 -113.76 644.89"/><polygon class="cls-2" points="-113.76 617.11 -113.76 636.31 0 571.3 0 552.1 -113.76 617.11"/><path class="cls-2" d="M-68.89,713.17l-69.19,39.53v81.22a3.72,3.72,0,0,1-1.88,3.22L-211,877.75v79.07l17,9.69V889.7a4.48,4.48,0,0,1,.06-.64,1,1,0,0,1,0-.17,2.61,2.61,0,0,1,.19-.6l0-.08a4.67,4.67,0,0,1,.27-.49l.1-.14a3.64,3.64,0,0,1,.4-.48l0,0a4.22,4.22,0,0,1,.46-.38l.15-.09.13-.09,71-40.83-.13-81.22a3.7,3.7,0,0,1,1.87-3.22l48.56-27.9a3.79,3.79,0,0,1,3.76,0L-18.49,761a3.68,3.68,0,0,1,1.89,3.21l.12,77.14L0,832V752.53Z"/><polygon class="cls-2" points="-113.77 961.11 -113.77 980.32 0 915.31 0 896.1 -113.77 961.11"/><polygon class="cls-2" points="-113.76 933.32 -113.77 952.53 0 887.52 0 868.31 -113.76 933.32"/><polygon class="cls-2" points="-113.76 905.53 -113.76 924.74 0 859.73 0 840.53 -113.76 905.53"/><polygon class="cls-2" points="874.17 -31.08 857.57 -21.6 857.61 0 874.17 0 874.17 -31.08"/><polygon class="cls-2" points="833.35 -7.76 833.35 0 850.1 0 850.07 -17.31 833.35 -7.76"/><polygon class="cls-2" points="819.78 0 825.85 0 825.85 -3.47 819.78 0"/><polygon class="cls-2" points="590.29 0 596.36 0 590.29 -3.46 590.29 0"/><polygon class="cls-2" points="590.29 -12.04 611.37 0 644.98 0 590.29 -31.25 590.29 -12.04"/><path class="cls-2" d="M680.12-65.25v0a4.62,4.62,0,0,1,.06-.64,1,1,0,0,0,0-.17,4.62,4.62,0,0,1,.19-.6.3.3,0,0,1,0-.08,3.29,3.29,0,0,1,.26-.49.71.71,0,0,0,.1-.14,3.64,3.64,0,0,1,.4-.48l0,0a4.14,4.14,0,0,1,.46-.37l.15-.1.13-.09,70.95-40.83,0-19.52-17.63,10.07a3.73,3.73,0,0,1-1.06.91L663.15-77.22V0h17Z"/><polygon class="cls-2" points="687.62 -58.83 687.62 0 704.27 0 704.27 -49.36 687.62 -58.83"/><path class="cls-2" d="M752.9-23.79V-49.43L730.47-62.26a3.69,3.69,0,0,1-1.88-3.21,3.69,3.69,0,0,1,1.88-3.22l46.75-26.72v-47.3L760.4-133.1l0,25.94a3.71,3.71,0,0,1-1.87,3.22l-67.2,38.67L709.61-54.9a3.39,3.39,0,0,1,.56.32l24,13.67a3.71,3.71,0,0,1,1.89,3.22V0h16.8V-23.78Z"/><polygon class="cls-2" points="711.78 -45.09 711.78 0 728.58 0 728.59 0 728.59 -35.54 711.78 -45.09"/><polygon class="cls-2" points="874.17 -39.66 874.17 -58.87 771.15 0 777.22 0 784.72 0 791.28 0 804.77 0 874.17 -39.66"/><polygon class="cls-2" points="582.78 -31.08 566.18 -21.6 566.22 0 582.78 0 582.78 -31.08"/><polygon class="cls-2" points="541.96 -7.76 541.96 0 558.71 0 558.68 -17.31 541.96 -7.76"/><polygon class="cls-2" points="528.39 0 534.45 0 534.46 -3.47 528.39 0"/><polygon class="cls-2" points="298.9 0 304.96 0 298.9 -3.46 298.9 0"/><polygon class="cls-2" points="298.9 -12.04 319.98 0 353.59 0 298.9 -31.25 298.9 -12.04"/><path class="cls-2" d="M388.73-65.25v0a4.62,4.62,0,0,1,.06-.64c0-.06,0-.11,0-.17a4.62,4.62,0,0,1,.19-.6.3.3,0,0,1,0-.08,3.29,3.29,0,0,1,.26-.49l.1-.14a3.64,3.64,0,0,1,.4-.48l0,0a4.14,4.14,0,0,1,.46-.37l.15-.1.13-.09,71-40.83,0-19.52-17.63,10.07a3.73,3.73,0,0,1-1.06.91L371.76-77.22V0h17Z"/><polygon class="cls-2" points="396.23 -58.83 396.23 0 412.88 0 412.88 -49.36 396.23 -58.83"/><path class="cls-2" d="M461.51-23.79V-49.43L439.07-62.26a3.7,3.7,0,0,1-1.87-3.21,3.7,3.7,0,0,1,1.87-3.22l46.76-26.72v-47.3L469-133.1l0,25.94a3.71,3.71,0,0,1-1.87,3.22L400-65.27,418.22-54.9a3.39,3.39,0,0,1,.56.32l24,13.67a3.7,3.7,0,0,1,1.88,3.22V0h16.81V-23.78Z"/><polygon class="cls-2" points="420.39 -45.09 420.39 0 437.19 0 437.2 0 437.2 -35.54 420.39 -45.09"/><polygon class="cls-2" points="582.78 -39.66 582.78 -58.87 479.76 0 485.83 0 493.33 0 499.89 0 513.38 0 582.78 -39.66"/><polygon class="cls-2" points="291.39 -31.08 274.79 -21.6 274.83 0 291.39 0 291.39 -31.08"/><polygon class="cls-2" points="250.57 -7.76 250.57 0 267.32 0 267.29 -17.31 250.57 -7.76"/><polygon class="cls-2" points="237 0 243.06 0 243.06 -3.47 237 0"/><polygon class="cls-2" points="7.51 0 13.57 0 7.51 -3.46 7.51 0"/><polygon class="cls-2" points="7.51 -12.04 28.59 0 62.2 0 7.51 -31.25 7.51 -12.04"/><path class="cls-2" d="M97.34-65.25v0a4.62,4.62,0,0,1,.06-.64,1,1,0,0,1,0-.17,3.47,3.47,0,0,1,.19-.6l0-.08a3.29,3.29,0,0,1,.26-.49l.1-.14a3.64,3.64,0,0,1,.4-.48l0,0a4.14,4.14,0,0,1,.46-.37l.15-.1.13-.09,71-40.83,0-19.52-17.63,10.07a3.88,3.88,0,0,1-1.06.91L80.37-77.22V0h17Z"/><polygon class="cls-2" points="104.84 -58.83 104.84 0 121.49 0 121.49 -49.36 104.84 -58.83"/><path class="cls-2" d="M170.12-23.79V-49.43L147.68-62.26a3.7,3.7,0,0,1-1.87-3.21,3.7,3.7,0,0,1,1.87-3.22l46.76-26.72v-47.3l-16.82,9.61,0,25.94a3.71,3.71,0,0,1-1.87,3.22l-67.2,38.67L126.83-54.9a4.48,4.48,0,0,1,.56.32l24,13.67a3.7,3.7,0,0,1,1.88,3.22V0h16.81V-23.78Z"/><polygon class="cls-2" points="129 -45.09 129 0 145.8 0 145.81 0 145.81 -35.54 129 -45.09"/><polygon class="cls-2" points="291.39 -39.66 291.39 -58.87 188.37 0 194.44 0 201.94 0 208.5 0 221.99 0 291.39 -39.66"/><polygon class="cls-2" points="0 -31.08 -16.6 -21.6 -16.56 0 0 0 0 -31.08"/><polygon class="cls-2" points="0 -39.66 0 -58.87 -103.02 0 -96.95 0 -89.45 0 -82.89 0 -69.41 0 0 -39.66"/></pattern></defs><polygon class="cls-3" points="27.85 65.88 27.85 2470.03 1142.15 2466.12 1142.15 61.97 27.85 65.88"/></svg>