<?xml version="1.0" encoding="utf-8"?>
<!-- Generator: Adobe Illustrator 24.2.3, SVG Export Plug-In . SVG Version: 6.00 Build 0)  -->
<svg version="1.1" id="Layer_1" xmlns="http://www.w3.org/2000/svg" xmlns:xlink="http://www.w3.org/1999/xlink" x="0px" y="0px"
	 viewBox="0 0 512 512" style="enable-background:new 0 0 512 512;" xml:space="preserve">
<style type="text/css">
	.st0{fill:#666666;}
</style>
<g>
	<path class="st0" d="M256,304c-27.3,0.1-53.5-10.6-72.8-29.9c-39.8-39.2-40.3-103.2-1.2-143c0.3-0.3,0.6-0.6,0.9-0.9
		c39.2-38.8,101.7-39.7,141.9-2.7c1.6,1.5,4.2,1.5,5.8,0l21.1-19.5c2.8-2.5,7.2-0.6,7.2,3.2v61.4c0,2.4-1.9,4.3-4.3,4.3h-58
		c-3.7,0-5.7-4.4-3.2-7.1l19.4-22.1c1.5-1.8,1.4-4.4-0.3-6c-15.7-14.2-36.2-22.1-57.5-22c-45.6-0.1-82.7,36.8-82.8,82.4
		c0,22.2,8.8,43.4,24.6,59c32.9,32.6,85.9,32.6,118.7,0c15-14.8,23-32,24.3-52.5c0.1-2.3,2-4,4.3-4h10.3c2.5,0,4.5,2.2,4.3,4.7
		c-0.8,9.8-3.3,20.2-7.3,30.1c-5.4,13.5-13.2,25.6-22.7,35C309.4,293.4,283.2,304.1,256,304z"/>
	<path class="st0" d="M170,394.6h-55c-28.3,0-49.2-17.2-54.5-44.8c-0.3-1.6-0.4-3.2-0.4-4.8c0-6.9,0-13.7-0.1-20.6
		c-0.1-18.3-0.2-37.3,0.1-55.8c0.1-6.3,5.3-11.4,11.6-11.3c2.2,0,4.4,0.6,6.3,1.8c4,2.5,5.8,5.7,5.8,10.9c0,19.1,0,38.5,0,57.3v13.2
		c0,17.7,12.4,30,30.1,30l285.9,0.1c15.4-0.2,27.9-12.7,28.2-28.1c0-9.9,0-19.8,0-29.7c0-13.7,0-27.9,0.1-41.8
		c0-8.4,4.7-13.6,12.1-13.6h0.4c5.4,0.1,10,3.9,11.1,9.1c0.4,2,0.6,4.1,0.5,6.2c0.1,20.6,0.1,42.3,0,66.3
		c-0.1,33.3-22.5,55.7-55.9,55.7H170z"/>
</g>
</svg>
