<?xml version="1.0" encoding="utf-8"?>
<!-- Generator: Adobe Illustrator 24.2.3, SVG Export Plug-In . SVG Version: 6.00 Build 0)  -->
<svg version="1.1" id="Layer_1" xmlns="http://www.w3.org/2000/svg" xmlns:xlink="http://www.w3.org/1999/xlink" x="0px" y="0px"
	 viewBox="0 0 512 512" style="enable-background:new 0 0 512 512;" xml:space="preserve">
<style type="text/css">
	.st0{fill:#666666;}
</style>
<path class="st0" d="M255.2,452.1c-37,0-74.1,0-111.1,0C114,452.1,96,434,96,403.8c0-100.3,0-199.8,0-295.8
	c0-30.1,18-48.1,48.2-48.2c37.5,0,75.1,0,112.6,0h111.1c30.1,0,48.1,18,48.1,48.2c0,34.8,0,69.5,0,104.3v88.2c0,34.4,0,68.8,0,103.3
	c0,30.2-18,48.2-48.2,48.2C330.3,452.1,292.8,452.1,255.2,452.1z M255.5,72.7c-36.8,0-73.7,0-110.6,0c-24,0-36.2,12.3-36.2,36.4
	c0,34.8,0,69.7,0,104.5v85.2c0,34.8,0,69.5,0,104.3c0,24,12.3,36.2,36.4,36.3c37,0,73.9,0,110.9,0c37,0,74,0,111,0
	c24,0,36.2-12.3,36.2-36.4c0-98.1,0-197,0-294c0-24-12.3-36.2-36.4-36.2C329.8,72.7,292.6,72.7,255.5,72.7L255.5,72.7z"/>
<path class="st0" d="M338.5,156.3c-2.4,0-4.7,0-7.1-0.1s-4.8-0.1-7.2-0.1h-162c-0.7,0-1.4,0-2.2,0h-1.9c-0.9,0-1.8,0-2.7-0.2
	c-6.3-1-6.3-4.9-6.2-6.4c0.1-3.8,2.1-5.9,6.1-6.1c2.9-0.2,6.2-0.3,10.2-0.3c2.2,0,4.3,0,6.5,0.1c2.2,0,4.4,0,6.6,0h162.9h2.2h2
	c0.9,0,1.8,0,2.7,0.1c6.4,0.8,6.5,4.6,6.5,6.1s0.1,6.1-6.5,6.5C345.6,156.2,342.5,156.3,338.5,156.3z"/>
<path class="st0" d="M346.6,213.1c-0.6,0-1.2,0-1.8,0h-2.1h-82.7h-98.2h-1.7h-1.6c-1.4,0-2.7-0.1-4.1-0.3c-5.1-1.1-5.2-4.7-5.3-5.8
	c-0.1-2.2,0.4-5.2,5.5-6.4c1.1-0.2,2.3-0.3,3.5-0.3h1.8h2H343c0.7,0,1.3,0,2,0s1.2,0,1.7,0c0.9,0,1.8,0.1,2.7,0.2
	c5.1,1.1,5.7,4.1,5.7,6.3s-0.7,5.1-5.8,6.2C348.4,213.1,347.5,213.2,346.6,213.1z"/>
<path class="st0" d="M174.8,270c-6.3,0-11.5,0-16.3-0.1c-3.7,0-6.7-1-8.2-2.6c-0.8-1-1.2-2.2-1-3.5c0.3-3.2,1.3-6.6,8.7-6.6h41.9
	h42.3c6.7,0,8.3,2.6,8.7,6.6c0.2,1.2-0.2,2.5-1,3.5c-1.5,1.6-4.5,2.6-8.3,2.6c-5.1,0-10.5,0.1-17.2,0.1h-12.6h-12.7H187H174.8z"/>
<path class="st0" d="M149.2,389.2c0,1.7,1.3,3.1,3,3.3c0.4,0,0.9,0,1.4,0h56.3c0,0-4.8,4.3-9.7,9.3c-0.8,0.8-1.2,1.6-1.2,2.4
	c0,0.4,0.1,0.8,0.2,1.2c0.4,1.3,1.3,2,2.8,2.3c0.9,0.1,1.8-0.1,2.4-0.7c0.4-0.3,0.7-0.6,1-0.9c8.9-8.9,5-5,13.8-13.8
	c1.1-1.1,1.7-2.1,1.7-3c0-0.9-0.5-1.9-1.6-2.9c-9.6-9.6-5.6-5.6-14.1-14.1c-2-2-3.5-1.5-4.4-1c-1.6,0.8-2.2,2.8-1.4,4.4
	c0.1,0.2,0.2,0.3,0.3,0.5c0.3,0.4,0.7,0.8,1.1,1.2c4.7,4.7,9.1,8.7,9.1,8.7h-21.6c-11.8,0-23.5,0-35.3,0c-2.7,0-3.5,1.4-3.8,2.6
	C149.3,388.7,149.2,389,149.2,389.2z"/>
</svg>
