<?xml version="1.0" encoding="utf-8"?>
<!-- Generator: Adobe Illustrator 24.2.3, SVG Export Plug-In . SVG Version: 6.00 Build 0)  -->
<svg version="1.1" id="Layer_1" xmlns="http://www.w3.org/2000/svg" xmlns:xlink="http://www.w3.org/1999/xlink" x="0px" y="0px"
	 viewBox="0 0 512 512" style="enable-background:new 0 0 512 512;" xml:space="preserve">
<style type="text/css">
	.st0{fill:#666666;}
</style>
<path class="st0" d="M367.9,59.9h-111c-37.5,0-75.1,0-112.6,0c-30.2,0-48.2,18-48.2,48.2c0,96,0,195.5,0,295.8
	c0,30.2,18,48.3,48.1,48.3c37,0,74.1,0,111.1,0c37.5,0,75.1,0,112.6,0c30.2,0,48.2-18,48.2-48.2c0-34.4,0-68.8,0-103.3v-88.2
	c0-34.8,0-69.5,0-104.3C416.1,77.9,398.1,59.9,367.9,59.9z M155.4,143.5c2.9-0.2,6.2-0.3,10.2-0.3c2.2,0,4.3,0,6.5,0
	c2.2,0,4.4,0,6.6,0h162.9h2.2h2c0.9,0,1.8,0,2.7,0.1c6.4,0.8,6.5,4.6,6.5,6.1s0.1,6.1-6.5,6.5c-2.9,0.2-6.1,0.3-10,0.3
	c-2.4,0-4.7,0-7.1-0.1c-2.4-0.1-4.8,0-7.2,0h-162c-0.7,0-1.4,0-2.2,0h-1.9c-0.9,0-1.8,0-2.7-0.2c-6.2-0.9-6.1-4.8-6.1-6.3
	C149.4,145.8,151.4,143.8,155.4,143.5z M219.2,386.8c-8.9,8.9-4.9,5-13.8,13.8c-0.3,0.3-0.7,0.6-1,0.9c-0.7,0.6-1.6,0.8-2.4,0.7
	c-1.5-0.2-2.3-0.9-2.8-2.3c-0.1-0.4-0.2-0.8-0.2-1.2c0-0.8,0.4-1.6,1.2-2.4c5-5,9.7-9.3,9.7-9.3h-56.3c-0.5,0-1,0-1.4,0
	c-1.7-0.2-3-1.6-3-3.3c0-0.3,0-0.5,0.1-0.8c0.3-1.2,1-2.6,3.8-2.6c11.8,0,23.5,0,35.3,0H210c0,0-4.5-4-9.1-8.7
	c-0.4-0.4-0.8-0.8-1.1-1.2c-0.1-0.2-0.2-0.3-0.3-0.5c-0.8-1.6-0.2-3.6,1.4-4.4c0.9-0.5,2.4-1,4.4,1c8.5,8.5,4.5,4.5,14.1,14.1
	c1.1,1.1,1.6,2,1.6,2.9C220.9,384.7,220.3,385.7,219.2,386.8z M249.8,267.3c-1.5,1.6-4.5,2.6-8.3,2.6c-5.1,0-10.5,0.1-17.2,0.1
	h-12.7h-12.7H187h-12.2c-6.3,0-11.5,0-16.3-0.1c-3.7,0-6.7-1-8.2-2.6c-0.8-1-1.2-2.2-1-3.5c0.3-3.2,1.3-6.6,8.7-6.6h41.9h42.3
	c6.7,0,8.3,2.7,8.7,6.6C251,265.1,250.7,266.3,249.8,267.3z M349.3,213c-0.9,0.1-1.8,0.2-2.7,0.1c-0.6,0-1.2,0-1.8,0h-2.1H260h-98.1
	h-1.7h-1.6c-1.4,0-2.7-0.1-4.1-0.3c-5.1-1.1-5.2-4.7-5.3-5.8c-0.1-2.2,0.4-5.2,5.5-6.4c1.1-0.2,2.3-0.3,3.5-0.3h1.8h2h181
	c0.7,0,1.3,0,2,0s1.2,0,1.7,0c0.9,0,1.8,0.1,2.7,0.2c5.1,1.1,5.7,4.1,5.7,6.3C355.1,208.9,354.4,211.9,349.3,213z"/>
</svg>
