<svg id="Layer_1" data-name="Layer 1" xmlns="http://www.w3.org/2000/svg" viewBox="0 0 512 512"><defs><style>.cls-1{fill:#666;}</style></defs><path class="cls-1" d="M362.1,292.45c11.69-16,13.51-35.57,13.76-42.72a19.61,19.61,0,0,0,2.65-.48,21.8,21.8,0,0,0,15-19.58c.23-4.82.09-9.67.1-14.51V182c0-9.79-5.27-17.92-14-21.17-2.32-.85-2.94-1.93-3-4.23a112.37,112.37,0,0,0-13.68-49.47C348.11,80,326,61.67,297,51.55a124.06,124.06,0,0,0-59.78-5.38,119.41,119.41,0,0,0-45.74,16.41,115.61,115.61,0,0,0-49.35,60.34,110.36,110.36,0,0,0-6.69,34.61,2.63,2.63,0,0,1-2.11,2.92,21.71,21.71,0,0,0-14.83,19.45c-.15,2.57,0,5.15,0,7.71,0,13.65-.21,27.29,0,40.94.12,9.52,4.93,16.47,13.61,20.15a21.75,21.75,0,0,0,26.17-7,110.35,110.35,0,0,0,25,31.37l2.72,2.36-33.92,16.11-.13.05c-57.63,23.41-52.5,97.87-52.25,101l.24,3,2.06,2.24c59.47,64.35,129.57,69.36,149.62,69.36,1.51,0,2.92,0,4.31-.08h.19c1.38.05,2.81.08,4.31.08,20.06,0,90.14-5,149.61-69.39l2.07-2.24.23-3C412.56,389.52,417.52,316.77,362.1,292.45ZM354,288.71l-28.39-13.48,2.69-2.36a110.41,110.41,0,0,0,25-31.65,23.25,23.25,0,0,0,7.57,6.49,12,12,0,0,0,6.21,2.18C366.86,256.62,365.24,274.66,354,288.71ZM376.9,169.1A12.42,12.42,0,0,1,384.78,181c.11,8,0,16,0,23.94s.09,15.85,0,23.77h0a13.42,13.42,0,0,1-26.63,2,110.08,110.08,0,0,0,6.05-60.73A13.42,13.42,0,0,1,376.9,169.1ZM144.53,153.19A105,105,0,0,1,159.39,107C172.33,85.51,190.68,70.37,214,61.3a115.23,115.23,0,0,1,58.85-6.52A110.8,110.8,0,0,1,327.22,78a106.25,106.25,0,0,1,32.2,42.28,105,105,0,0,1,7.53,27.5c.5,3.83.71,7.71,1.05,11.52a27.32,27.32,0,0,0-5.79,1.91,110.37,110.37,0,0,0-213.08-.28,30,30,0,0,0-5.07-1.57C144.22,157.19,144.36,155.19,144.53,153.19Zm-2.77,88.45c-6.71.66-12.81-4-14.36-10.94a9.4,9.4,0,0,1-.23-2c0-15.9-.11-31.8,0-47.69a13.33,13.33,0,0,1,18.67-12v0a13.46,13.46,0,0,1,1.26.63,110.08,110.08,0,0,0,6.41,62A13.33,13.33,0,0,1,141.76,241.64Zm21.07-49.95c0-.85,0-1.7,0-2.56a92.64,92.64,0,1,1,0,2.56ZM395,387.4v.94l-.66.67c-54.05,56.3-116.85,60.67-134.81,60.67-1.27,0-2.26,0-3,0H255.5c-.72,0-1.72.05-3,.05-18,0-80.74-4.38-134.79-60.68l-.65-.67v-.94c-.14-14.69,2.47-63.82,41.67-79.61L198.55,289l2-3.51,2,1.12a110.1,110.1,0,0,0,106.82-.32l2-1.13L313.6,289l25.27,12A52.49,52.49,0,0,1,328.08,305a11.87,11.87,0,1,0,1.5,8.76,58,58,0,0,0,19-8.23l4.14,2,.56.24C392.51,323.52,395.12,372.71,395,387.4Z"/></svg>