<svg id="Layer_1" data-name="Layer 1" xmlns="http://www.w3.org/2000/svg" viewBox="0 0 512 512"><defs><style>.cls-1{fill:#666;}</style></defs><path class="cls-1" d="M256,454c-51.6,0-100.24-7.51-137-21.14-18.43-6.85-33-14.93-43.4-24-14.86-13-18-25.8-18-34.2,0-13.8,8-34,46.06-51.84,21.87-10.24,50.69-18.12,83.37-22.79l5.56-.8L188.9,295c-6.43-7.15-14.87-16.57-23.15-26-32.17-36.69-41.41-78.09-27.45-123,14.19-45.66,45.29-74.3,92.44-85.13A113.87,113.87,0,0,1,256.1,58c27,0,53.94,9.6,75.86,27a122.24,122.24,0,0,1,43.54,69.27c4.81,22.15,4.49,43.28-.95,62.78-5.4,19.29-16,37.74-31.53,54.83-6.89,7.59-13.86,15.32-20.72,23l-3.75,4.2,5.58.78c33.62,4.68,63.25,12.85,85.68,23.62,36.86,17.69,44.59,37.58,44.59,51.16,0,8.4-3.12,21.16-18,34.2-10.4,9.1-25,17.19-43.4,24C356.28,446.51,307.62,454,256,454ZM206.18,316.07c-37.24,3.84-70.87,12.11-94.71,23.28-22.93,10.74-35.56,23.28-35.56,35.3,0,14.45,18,29.43,49.48,41.1,34.73,12.89,81.12,20,130.63,20s95.82-7.1,130.62-20c31.44-11.64,49.5-26.62,49.54-41.1,0-12-12.68-24.59-35.7-35.35-16.65-7.77-51-18.42-97-23.41l-.58.78-16.69,18.85-5.87,6.66c-3.18,3.58-17.61,19.89-17.61,19.89a10.18,10.18,0,0,1-.73.74,9.25,9.25,0,0,1-13.06-.72l-.05-.07c-6.09-6.8-12.08-13.52-18-20.21l-13.54-15.18-9.62-10.72ZM255.43,75.55c-35.48,0-69.73,19.15-89.37,50C140,166.48,145,222.28,177.8,255.31c6.86,6.91,13.44,14.57,19.81,22l.18.21c3.06,3.56,6.22,7.24,9.41,10.84,9.38,10.56,18.77,21.12,28.34,31.86l20,22.47,9.5-10.48,4.44-4.91q9.79-10.89,19.56-21.79l.64-.72c14.16-15.81,28.81-32.16,43.37-48,23.32-25.45,32.52-55.86,27.33-90.41-6.71-44.63-40.46-79.51-86-88.86a95.16,95.16,0,0,0-18.89-1.9Z"/><path class="cls-1" d="M255.31,226.09c-22.88-.05-41.61-19-41.75-42.32a42.51,42.51,0,0,1,12.5-30.39A41.3,41.3,0,0,1,255.5,141h.44a42.41,42.41,0,0,1,41.76,42.89c-.23,23.28-19.2,42.22-42.28,42.22Z"/></svg>