<?xml version="1.0" encoding="utf-8"?>
<!-- Generator: Adobe Illustrator 24.2.3, SVG Export Plug-In . SVG Version: 6.00 Build 0)  -->
<svg version="1.1" id="Layer_1" xmlns="http://www.w3.org/2000/svg" xmlns:xlink="http://www.w3.org/1999/xlink" x="0px" y="0px"
	 viewBox="0 0 512 512" style="enable-background:new 0 0 512 512;" xml:space="preserve">
<style type="text/css">
	.st0{fill:#666666;}
</style>
<path class="st0" d="M255.2,452.1c-37,0-74.1,0-111.1,0C114,452.1,96,434,96,403.8C96,303.5,96,204,96,108c0-30.1,18-48.1,48.2-48.2
	c37.5,0,75.1,0,112.6,0h111.1c30.1,0,48.1,18,48.1,48.2c0,34.8,0,69.5,0,104.3v88.2c0,34.4,0,68.8,0,103.3c0,30.2-18,48.2-48.2,48.2
	C330.3,452.1,292.8,452.1,255.2,452.1z M255.5,72.7c-36.8,0-73.7,0-110.6,0c-24,0-36.2,12.3-36.2,36.4c0,34.8,0,69.7,0,104.5v85.2
	c0,34.8,0,69.5,0,104.3c0,24,12.3,36.2,36.4,36.3c37,0,73.9,0,110.9,0s74,0,111,0c24,0,36.2-12.3,36.2-36.4c0-98.1,0-197,0-294
	c0-24-12.3-36.2-36.4-36.2C329.8,72.7,292.6,72.7,255.5,72.7L255.5,72.7z"/>
<path class="st0" d="M144.1,448.1c-28,0-44.1-16.1-44.1-44.3V108c0-28,16.1-44.1,44.2-44.2h223.7c28,0,44.1,16.1,44.1,44.2v295.8
	c0,28.1-16.1,44.2-44.2,44.2c-37.5,0.1-75.7,0.1-112.6,0.1H144.1z M144.9,68.7c-26.3,0-40.2,14-40.2,40.4v294
	c0,26.3,14,40.2,40.4,40.3H367c26.3,0,40.2-14,40.2-40.4V109c0-26.3-14-40.2-40.4-40.2c-37-0.1-74.8-0.1-111.3-0.1H144.9z"/>
<path class="st0" d="M149.2,389.2c0,1.7,1.3,3.1,3,3.3c0.4,0,0.9,0,1.4,0h56.3c0,0-4.8,4.3-9.7,9.3c-0.8,0.8-1.2,1.6-1.2,2.4
	c0,0.4,0.1,0.8,0.2,1.2c0.4,1.3,1.3,2,2.8,2.3c0.9,0.1,1.8-0.1,2.4-0.7c0.4-0.3,0.7-0.6,1-0.9c8.9-8.9,5-5,13.8-13.8
	c1.1-1.1,1.7-2.1,1.7-3s-0.5-1.9-1.6-2.9c-9.6-9.6-5.6-5.6-14.1-14.1c-2-2-3.5-1.5-4.4-1c-1.6,0.8-2.2,2.8-1.4,4.4
	c0.1,0.2,0.2,0.3,0.3,0.5c0.3,0.4,0.7,0.8,1.1,1.2c4.7,4.7,9.1,8.7,9.1,8.7h-21.6c-11.8,0-23.5,0-35.3,0c-2.7,0-3.5,1.4-3.8,2.6
	C149.3,388.7,149.2,389,149.2,389.2z"/>
</svg>
