<svg id="Layer_1" data-name="Layer 1" xmlns="http://www.w3.org/2000/svg" viewBox="0 0 512 512"><defs><style>.cls-1{fill:#666;}</style></defs><path class="cls-1" d="M255.94,447.92a15,15,0,0,1-6.84-1.79C199.27,421,153.32,398,108.61,375.78c-6.2-3.09-8.72-7.16-8.68-14.06.14-24.12.15-48.66.15-72.38,0-17.41,0-35.42.07-53.13,0-2.76-.69-3.85-3.24-5.09-8.23-4-16.53-8.16-24.56-12.2q-8.37-4.2-16.76-8.37c-3.2-1.58-6.87-4.06-6.84-9.19,0-4.77,3.34-7.17,6.58-8.89,9-4.76,18.1-9.66,26.92-14.4l6.06-3.26c.53-.29,1.06-.59,1.64-.93l-3.08-1.67-12.46-6.73-4.74-2.56c-4.79-2.59-9.75-5.28-14.66-7.84-2.66-1.38-6.2-3.79-6.23-8.65,0-5.16,3.66-7.61,6.45-9Q87,121.55,118.75,105.6l19.36-9.71L153.9,88c14.31-7.15,29.11-14.55,43.59-22a15.31,15.31,0,0,1,7-1.89,14.88,14.88,0,0,1,7.33,2.12c7.88,4.39,16,8.72,23.79,12.9,5.87,3.14,11.94,6.39,17.88,9.65a5.13,5.13,0,0,0,2.43.75,5.43,5.43,0,0,0,2.55-.81c6.9-3.78,13.95-7.56,20.76-11.21,7-3.76,14.23-7.64,21.3-11.52a13.1,13.1,0,0,1,13.21-.28C361.88,90,411,114.51,456.83,137.45c2.68,1.34,6.25,3.68,6.41,8.53.17,5.11-3.51,7.65-6.29,9.12-8.65,4.58-17.42,9.31-25.9,13.88l-7.42,4-1.64.91c.43.27.84.5,1.25.72l4.77,2.56c9.23,5,18.78,10.1,28.21,15.08,2.52,1.33,7.2,3.8,7,9.54-.17,5.47-4.72,7.71-7.16,8.91-6.47,3.18-13,6.47-19.36,9.65-7.18,3.6-14.61,7.32-22,10.92-2.32,1.13-3,2.21-3,4.82.07,20.94.08,42.23.08,62.82,0,21.1,0,42.91.09,64.36,0,5.61-2.27,9.25-7.41,11.82-48.7,24.28-96.34,48.15-141.58,71A15.34,15.34,0,0,1,255.94,447.92Zm9.44-23.36.81-.38L298,408.23c30.73-15.42,62.51-31.36,93.8-47,1.75-.88,2.2-1.63,2.19-3.66,0-25.64,0-51.72-.05-76.93V243.74c0-.56-.05-1.14-.11-1.77-1,.44-1.76.8-2.56,1.2l-15.79,7.9c-20.28,10.14-41.25,20.63-61.83,31a13.77,13.77,0,0,1-6.29,1.65,13.4,13.4,0,0,1-6.55-1.85c-8.54-4.73-17.3-9.41-25.77-13.94l-8.6-4.6-1.06-.54ZM118.13,241.9c-.06,1-.09,1.81-.1,2.63v30.16c0,26.89,0,54.7-.07,82.05,0,2.71.62,3.76,2.92,4.91,31.14,15.51,62.76,31.37,93.33,46.7L245.39,424c.39.19.78.37,1.21.55V262.84c-.5.24-1,.48-1.44.73L236.88,268c-8.46,4.51-17.2,9.19-25.73,13.9a13.48,13.48,0,0,1-6.58,1.86,13.62,13.62,0,0,1-6.25-1.65c-14.91-7.58-30.12-15.18-44.83-22.53l-15.32-7.66Zm157.51,5.88c.48.29.92.55,1.36.79q4.23,2.27,8.47,4.5c6.26,3.32,12.73,6.74,19,10.3a6.4,6.4,0,0,0,3.16,1,6.57,6.57,0,0,0,2.93-.83c29.72-15,60-30.15,89.23-44.82l33.64-16.88c.38-.19.75-.4,1.15-.63-2-1.09-4-2.15-6-3.21-7.94-4.26-15.44-8.28-23-12.47a6,6,0,0,0-2.95-.93,6.27,6.27,0,0,0-2.81.81c-21.66,11-43.73,22-65.08,32.69L313,229l-27.32,13.72ZM80.73,202.9l12.4,6.23,15.54,7.79c30.59,15.34,62.21,31.19,93.36,46.69a6.64,6.64,0,0,0,2.75.63,2.32,2.32,0,0,0,1-.17c8.57-4.38,17.18-9.06,25.5-13.58l5-2.71-38.38-19.24c-28.35-14.22-57.67-28.92-86.52-43.33a6.59,6.59,0,0,0-2.44-.82h0c-9,4.63-17.83,9.41-27.24,14.47l-4.37,2.35Zm48.63-29c.51.27,1,.53,1.47.77L159,188.83C190,204.33,222,220.36,253.39,236.2a5.59,5.59,0,0,0,2.55.7,6.48,6.48,0,0,0,2.95-.86c29.46-14.83,59.44-29.85,88.44-44.38l27.42-13.75c2.31-1.15,4.6-2.33,7.12-3.62l.81-.42-31.55-15.81c-30.44-15.25-61.93-31-92.87-46.6a5,5,0,0,0-2.26-.63,5.46,5.46,0,0,0-2.48.72q-44.06,22.17-88.15,44.27l-35.13,17.63C130,173.59,129.66,173.75,129.36,173.93Zm200.47-46.75c23.06,11.56,46.9,23.52,70.38,35.21a7.54,7.54,0,0,0,2.84.83h0a.86.86,0,0,0,.27,0c8.73-4.47,17.32-9.09,26.41-14l4.94-2.65L430,144.2C390.34,124.33,349.38,103.78,309,83.69a3,3,0,0,0-1.32-.24,3.93,3.93,0,0,0-1.74.35c-8.82,4.55-17.7,9.35-26.3,14l-4.08,2.2ZM83.38,149.79c7.89,4.22,15.35,8.2,22.78,12.34a6.58,6.58,0,0,0,3.22,1h0a6.36,6.36,0,0,0,2.89-.82c30.6-15.43,61.74-31,91.86-46.14l31.39-15.74c.26-.13.52-.28.79-.43l-.77-.43q-4.18-2.27-8.38-4.5c-6.5-3.49-13.22-7.09-19.77-10.76a6,6,0,0,0-3-.94,6.16,6.16,0,0,0-2.78.79c-30.88,15.56-62.31,31.31-92.72,46.53L79.14,145.64c-.57.28-1.14.59-1.77.94Z"/></svg>