<svg id="Layer_1" data-name="Layer 1" xmlns="http://www.w3.org/2000/svg" viewBox="0 0 250 250"><defs><style>.cls-1{opacity:0.25;}.cls-2{fill:none;stroke:#1a1a1a;stroke-miterlimit:10;}</style></defs><g class="cls-1"><path class="cls-2" d="M124.5,205.37c-24.38,0-48.76-.17-73.14.07-13.49.13-21.76-8.1-24.7-19.24-1.2-4.54-.56-8.82.68-13.14a36.45,36.45,0,0,1,10.8-17.64,46,46,0,0,0,10.75-14.55c4.92-10,7.51-20.69,9-31.67,1.1-8,1.24-16,1.64-24,1-19.44,8.28-36,23.47-48.59A59.19,59.19,0,0,1,100.08,27a2.52,2.52,0,0,0,1.62-1.65A24.56,24.56,0,0,1,127.84,9.5c10.1,1.33,17.12,6.67,20.77,16.3A2.57,2.57,0,0,0,150,27a70.28,70.28,0,0,1,26.19,18.5,55.28,55.28,0,0,1,13.69,31.28c.5,4.88.47,9.82.74,14.73.77,14,2.65,27.88,7.25,41.24a54,54,0,0,0,7.9,15.64,47.55,47.55,0,0,0,5.8,6.24c8.05,7.26,12.57,16.23,12.41,27.08-.16,11.23-7,22.53-22.62,23.52-1.23.08-2.47.08-3.71.08H124.5ZM50.32,196.3h1.45l146,0c.83,0,1.65,0,2.48,0,8.95-.39,14.85-6.79,14.33-15.56a27.57,27.57,0,0,0-9.47-19.4,55.12,55.12,0,0,1-7.5-8.36c-5.39-7.46-8.57-16-11-24.8a175.91,175.91,0,0,1-5.75-44.86,48,48,0,0,0-5.8-23c-7-12.66-17.73-20.79-31.09-25.72a5.73,5.73,0,0,1-4.05-4.5,15.37,15.37,0,0,0-29.85,0,5.22,5.22,0,0,1-3.81,4.25,51,51,0,0,0-16.11,8.3C76.41,53.46,70,68,69,85.16c-.43,7.09-.51,14.21-1.2,21.27-1.3,13.11-4.24,25.84-10,37.79-3,6.18-6.49,12-11.79,16.53a30,30,0,0,0-9.66,15.11c-.71,2.54-1.36,5.08-.66,7.78,1.15,4.4,2.94,8.34,7,10.79a14.11,14.11,0,0,0,6.9,1.92l.18,2H50Z"/><path class="cls-2" d="M124.2,240.71c-10.88-.31-21.1-3.9-29.31-12.35a29.21,29.21,0,0,1-7-11.53,6.67,6.67,0,0,1-.16-3.26,3.92,3.92,0,0,1,3.56-3.13,4.15,4.15,0,0,1,4.18,2.5c.48,1.05.82,2.17,1.33,3.2A25.9,25.9,0,0,0,111.53,229c12,4.44,23.46,3.4,34.05-4a22.59,22.59,0,0,0,8.44-11.2c.95-2.7,3.17-4,5.43-3.2a4.6,4.6,0,0,1,2.61,6,33,33,0,0,1-13.51,17.08C141.4,238.46,133.44,240.57,124.2,240.71Z"/></g></svg>