<svg id="Layer_1" data-name="Layer 1" xmlns="http://www.w3.org/2000/svg" viewBox="0 0 512 512"><defs><style>.cls-1{fill:#666;}</style></defs><path class="cls-1" d="M78.25,165.81c.84-.48,1.56-.88,2.28-1.24l27.9-14c30.67-15.36,62.39-31.25,93.54-46.95a6.52,6.52,0,0,1,2.89-.82,6.14,6.14,0,0,1,3.13,1c6.16,3.45,12.46,6.84,18.55,10.11l4,2.16v-1c0-5.27,0-10.54,0-15.81V96.52c-6-3.23-12.34-6.64-18.47-10.06a14.46,14.46,0,0,0-7.1-2,14.65,14.65,0,0,0-6.82,1.83c-14.11,7.21-28.52,14.42-42.47,21.39l-.12.06q-8.13,4.08-16.28,8.16L117,127c-19.62,9.84-39.91,20-59.87,30-2.91,1.46-6.25,3.74-6.22,8.61.05,4.6,3.24,6.86,6,8.3,4.74,2.47,9.53,5.06,14.16,7.56l5.08,2.74,15.51,8.39.41.22c-.8.48-1.48.86-2.15,1.23l-6.37,3.42c-8.62,4.64-17.53,9.43-26.31,14.09-3.13,1.66-6.33,4-6.36,8.52,0,4.88,3.33,7.19,6.6,8.81q8,4,16,8l.19.1c8.09,4.06,16.45,8.26,24.74,12.28,2.65,1.28,3.41,2.48,3.39,5.35,0,17.32-.06,34.94-.06,52v.55c0,23.56,0,47.92-.16,71.88,0,6.7,2.42,10.65,8.43,13.63,44.65,22.19,90.21,45,139.26,69.74a14.46,14.46,0,0,0,6.64,1.75,14.94,14.94,0,0,0,6.83-1.82C308,439.59,355.18,415.93,403.12,392c5-2.51,7.19-5.93,7.16-11.41-.07-21.56-.07-43.18-.08-64.08,0-19.28,0-41.12-.08-62,0-2.71.72-3.89,3.13-5.08,7.29-3.56,14.59-7.23,21.66-10.77l.29-.15c6.23-3.11,12.66-6.34,19-9.46,3.51-1.73,6.77-4,6.91-8.54.15-4.82-3.17-7.25-6.78-9.16-9.89-5.22-19.86-10.59-29.51-15.77l-3.19-1.72c-.56-.3-1.13-.64-1.73-1l2.11-1.2,8.07-4.34c8.17-4.4,16.63-9,25-13.37,2.68-1.41,6.21-3.86,6.06-8.74-.14-4.64-3.6-6.89-6.18-8.17C412.28,135.72,362.62,110.87,313.12,86A13.41,13.41,0,0,0,307,84.35a13.65,13.65,0,0,0-6.64,1.88c-6.14,3.38-12.19,6.62-18.82,10.17v2.76l0,16.79,2.78-1.5c7.77-4.2,14.34-7.7,21.08-11.18a4.38,4.38,0,0,1,1.87-.37,3.44,3.44,0,0,1,1.46.26c39.41,19.63,79.44,39.7,118.15,59.12l6.63,3.32a1.5,1.5,0,0,1,.32.19l-6.26,3.36c-8.73,4.69-17,9.11-25.39,13.42a1,1,0,0,1-.4.05,7.4,7.4,0,0,1-2.95-.86c-23.25-11.57-46.74-23.34-69.46-34.73l-17.58-8.82-1.63,1.62c-3.26,3.25-6.52,6.51-9.77,9.74l-1.47,1.48,2,1,49,24.53q15.92,8,31.85,16c.19.09.37.2.57.31l-1.15.59c-2.59,1.32-4.92,2.52-7.26,3.7l-30.11,15.08C316,226.15,287.34,240.53,259,254.78a6.63,6.63,0,0,1-3.08.89,5.92,5.92,0,0,1-2.68-.73c-29.84-15-60.22-30.27-89.6-45l-31.88-16c-.63-.32-1.26-.66-2-1.06.5-.3,1-.55,1.41-.78l31.43-15.77L211.25,152l2-1-1.53-1.53L202,139.76l-1.63-1.61c-23.79,11.92-56.18,28.16-86.72,43.56a6.78,6.78,0,0,1-3,.86,7,7,0,0,1-3.35-1.06m-12.9,46.6-11.33-5.7L78.21,220l5-2.7c9.32-5,18.12-9.74,26.93-14.32h.11a6.45,6.45,0,0,1,2.57.85c26.35,13.17,53.11,26.59,79,39.56l21.94,11c7.72,3.87,15.43,7.75,23.43,11.75l-5.47,3c-8.27,4.49-16.82,9.14-25.31,13.48a2.86,2.86,0,0,1-1.2.21,7,7,0,0,1-2.88-.66c-29-14.45-58.54-29.24-87-43.53ZM432,220.89l-31.94,16-4,2c-26.64,13.36-56.84,28.5-85.86,43.13a6.86,6.86,0,0,1-3.05.87,6.61,6.61,0,0,1-3.3-1.06c-6.31-3.57-12.82-7-19.11-10.35l-.09-.06c-2.68-1.41-5.36-2.83-8-4.25-.61-.33-1.21-.69-1.88-1.11l9.1-4.57c9.7-4.86,19.06-9.58,28.43-14.28q10.41-5.22,20.81-10.42l.26-.12C354.74,226,376.81,215,398.45,204a6.67,6.67,0,0,1,2.94-.83,6.1,6.1,0,0,1,3.09,1c7.52,4.18,15,8.18,22.9,12.42l6.32,3.4C433.11,220.31,432.58,220.62,432,220.89ZM268,135.43c-1.39-1.49-2.07-3.67-2.07-6.67v-24l-2.8,1.52-4.51,2.46a5.29,5.29,0,0,1-2.69.84,5.45,5.45,0,0,1-2.56-.79l-4.45-2.42-2.8-1.52v23.56c0,3.18-.56,5.27-1.84,6.78a2.47,2.47,0,0,1-.28.28l9.38-4.71A5.6,5.6,0,0,1,256,130a5.37,5.37,0,0,1,2.4.67l9.86,5Z"/><path class="cls-1" d="M232.32,52V119.8a4.15,4.15,0,0,1-4.15,4.16H202.11a4.16,4.16,0,0,0-2.94,7.1l54.49,54.49a4.15,4.15,0,0,0,5.88,0L313,132.09a4.16,4.16,0,0,0-2.94-7.1H284a4.17,4.17,0,0,1-4.16-4.16V52a4.15,4.15,0,0,0-4.15-4.16H236.48A4.16,4.16,0,0,0,232.32,52Z"/></svg>