<svg id="Layer_1" data-name="Layer 1" xmlns="http://www.w3.org/2000/svg" viewBox="0 0 512 512"><defs><style>.cls-1{fill:#666;}</style></defs><path class="cls-1" d="M454.26,211.37c-9.88-5.22-19.86-10.59-29.51-15.77l-3.19-1.72c-.56-.3-1.12-.64-1.73-1,.77-.44,1.43-.82,2.12-1.2l8.07-4.34c8.16-4.4,16.62-9,25-13.37,2.67-1.41,6.21-3.86,6.05-8.74-.14-4.64-3.6-6.89-6.18-8.17-42.65-21.33-92.3-46.18-141.81-71.09a13.38,13.38,0,0,0-6.15-1.61,13.59,13.59,0,0,0-6.63,1.88c-6.15,3.38-12.2,6.62-18.82,10.17V116l2.79-1.5c7.77-4.2,14.33-7.7,21.07-11.18a4.41,4.41,0,0,1,1.87-.37,3.44,3.44,0,0,1,1.46.26c39.41,19.63,79.44,39.7,118.15,59.12l6.63,3.32a1.86,1.86,0,0,1,.33.19l-6.27,3.36c-8.73,4.69-17,9.11-25.39,13.42a1,1,0,0,1-.39.05,7.4,7.4,0,0,1-3-.86C375.5,170.19,352,158.42,329.29,147l-17.58-8.82-1.62,1.62-9.77,9.74-1.48,1.48,2,1q24.48,12.27,49,24.53,15.92,8,31.85,16l.56.31-1.15.59c-2.58,1.32-4.92,2.52-7.26,3.7L343.7,212.24C316,226.15,287.27,240.53,259,254.78a6.63,6.63,0,0,1-3.08.89,5.88,5.88,0,0,1-2.67-.73c-29.85-15-60.23-30.27-89.61-45l-31.88-16c-.63-.32-1.26-.66-2-1.06.5-.3,1-.55,1.41-.78l31.43-15.77L211.18,152l2-1-1.54-1.53L202,139.76l-1.63-1.61c-23.78,11.92-56.18,28.16-86.72,43.56a6.78,6.78,0,0,1-3,.86,7,7,0,0,1-3.35-1.06c-7.29-4.06-14.59-8-22.32-12.1l-6.74-3.6c.84-.48,1.56-.88,2.29-1.24l27.89-14c30.67-15.36,62.39-31.25,93.54-46.95a6.56,6.56,0,0,1,2.9-.82,6.11,6.11,0,0,1,3.12,1c6.16,3.45,12.46,6.84,18.55,10.11l4,2.16v-1c0-5.27,0-10.54,0-15.81V96.52c-6-3.23-12.35-6.64-18.48-10.06a14.41,14.41,0,0,0-7.1-2,14.68,14.68,0,0,0-6.82,1.83c-14.1,7.21-28.52,14.42-42.47,21.39l-.11.06-16.29,8.16L116.93,127c-19.62,9.84-39.91,20-59.87,30-2.9,1.46-6.25,3.74-6.22,8.61,0,4.6,3.24,6.86,6,8.3C61.6,176.41,66.38,179,71,181.5l5.08,2.74,15.52,8.39.4.22c-.8.48-1.48.86-2.15,1.23l-6.37,3.42c-8.62,4.64-17.53,9.43-26.31,14.09-3.13,1.66-6.33,4-6.36,8.52,0,4.88,3.33,7.19,6.61,8.81q8,4,16,8l.19.1c8.09,4.06,16.45,8.26,24.75,12.28,2.64,1.28,3.4,2.48,3.38,5.35,0,17.32-.06,34.94-.06,52v.55c0,23.56,0,47.92-.15,71.88,0,6.7,2.41,10.65,8.42,13.63,44.65,22.19,90.21,45,139.26,69.74a14.49,14.49,0,0,0,6.64,1.75,14.94,14.94,0,0,0,6.83-1.82c45.18-22.78,92.4-46.44,140.34-70.35,5-2.51,7.19-5.93,7.16-11.41-.06-21.56-.07-43.18-.08-64.08,0-19.28,0-41.12-.08-62,0-2.71.72-3.89,3.14-5.08,7.28-3.56,14.59-7.23,21.66-10.77l.28-.15c6.23-3.11,12.66-6.34,19-9.46,3.5-1.73,6.76-4,6.9-8.54C461.19,215.71,457.87,213.28,454.26,211.37ZM94.34,228.11,83,222.41,78.14,220l5-2.7c9.31-5,18.11-9.74,26.92-14.32h.11a6.41,6.41,0,0,1,2.57.85c26.35,13.17,53.12,26.59,79,39.56l21.95,11c7.71,3.87,15.42,7.75,23.42,11.75l-5.47,3c-8.27,4.49-16.82,9.14-25.31,13.48a2.82,2.82,0,0,1-1.2.21,7,7,0,0,1-2.87-.66c-29-14.45-58.54-29.24-87.06-43.53ZM247,441.83c-.59-.24-1.15-.49-1.67-.74l-31-15.54c-30.23-15.16-61.49-30.84-92.44-46.25-2.37-1.19-3.08-2.39-3.08-5.18.08-27.77.08-56,.07-83.26v-28c0-.94.06-1.91.12-3.12L137.51,269l1.77.89,15,7.52c14.6,7.3,29.7,14.84,44.59,22.41a13.24,13.24,0,0,0,6.05,1.59,12.88,12.88,0,0,0,6.35-1.8c8.69-4.8,17.6-9.55,26.21-14.15l7.52-4c.61-.33,1.23-.64,1.91-1ZM390.7,378.9c-29.16,14.56-58.78,29.41-87.43,43.78l-.57.29-36.52,18.32c-.4.19-.82.38-1.28.57V280.5c.53.26,1.05.52,1.55.79l8.83,4.72.1.05c8.26,4.42,16.81,9,25.14,13.59a12.92,12.92,0,0,0,6.34,1.8,13.31,13.31,0,0,0,6.08-1.6c20.68-10.45,41.75-21,62.14-31.19l14.81-7.41c.92-.45,1.9-.9,3-1.38a20.68,20.68,0,0,1,.15,2.24q0,18,0,35.88v.13c0,25.19,0,51.24.05,76.85C393.06,377.13,392.56,378,390.7,378.9Zm41.27-158-31.94,16-4,2c-26.64,13.36-56.84,28.5-85.85,43.13a6.89,6.89,0,0,1-3.06.87,6.61,6.61,0,0,1-3.3-1.06c-6.31-3.57-12.82-7-19.11-10.35l-.09-.06q-4-2.11-8-4.25c-.61-.33-1.21-.69-1.88-1.11l9.1-4.57c9.7-4.86,19.06-9.58,28.44-14.28q10.39-5.22,20.81-10.42l.25-.12C354.67,226,376.74,215,398.39,204a6.6,6.6,0,0,1,2.94-.83,6.15,6.15,0,0,1,3.09,1c7.51,4.18,15,8.18,22.89,12.42l6.32,3.4C433,220.31,432.51,220.62,432,220.89ZM268,135.43c-1.39-1.49-2.07-3.67-2.07-6.67v-24l-2.8,1.52-4.51,2.46a5.26,5.26,0,0,1-2.69.84,5.45,5.45,0,0,1-2.56-.79l-4.45-2.42-2.8-1.52v23.56c0,3.18-.56,5.27-1.84,6.78a2.37,2.37,0,0,1-.27.28l9.38-4.71a5.54,5.54,0,0,1,2.59-.75,5.34,5.34,0,0,1,2.4.67l9.86,5Z"/><path class="cls-1" d="M256,189c-1.61,0-3.34-1-5.3-2.89Q240.36,175.74,230,165.36l-.51-.51-8.91-8.91-7.72-7.72c-3.23-3.22-6.47-6.45-9.7-9.65l-2.65-2.64-.58-.58c-1.87-1.86-3.6-4.23-2.23-7.73,1-2.56,3.07-3.7,6.69-3.7h.27c2.75,0,5.88.07,10.13.07l7.21,0h10.22v-8.87c0-5.27,0-10.54,0-15.81v-.93c0-10.14,0-34.5.07-48.11V47.81h12.11v80.62c0,2.75-.44,4.51-1.44,5.69a5.74,5.74,0,0,1-3.61,1.81,16.85,16.85,0,0,1-2.83.21H219.2L256,173l35.84-36.73h-5.69l-5.15,0h-2l-4.05,0a13,13,0,0,1-2.49-.23,5.72,5.72,0,0,1-3.27-1.64c-1.09-1.16-1.62-3-1.62-5.51V113.43c0-2.4,0-5,0-7.66,0-16.43,0-39.33.05-55.12l0-2.84h12.12v2.44c0,7.47,0,30.39,0,48.91v19c0,.47,0,2.66,0,4.24l0,1.73L302,124l1.72,0h2c.73,0,1.45,0,2.17,0h.46c3.12,0,5,1.17,6.08,3.66.49,1.17,1.64,3.91-2.15,7.66l-3.39,3.37c-3.27,3.24-6.53,6.51-9.78,9.75L281,166.49l-5.45,5.45c-4.36,4.37-9.32,9.33-14.11,14.08C259.46,188,257.68,189,256,189Z"/></svg>