<svg id="Layer_1" data-name="Layer 1" xmlns="http://www.w3.org/2000/svg" viewBox="0 0 512 512"><defs><style>.cls-1{fill:#666;}</style></defs><g id="Setting"><path class="cls-1" d="M256,335.09a76.66,76.66,0,1,1,76.66-76.66A76.75,76.75,0,0,1,256,335.09Zm0-138.32a61.66,61.66,0,1,0,61.66,61.66A61.73,61.73,0,0,0,256,196.77Z"/><path class="cls-1" d="M256,456.27a195.84,195.84,0,0,1-22.94-1.36,19.58,19.58,0,0,1-16.84-16.08l-6.56-38.22a150.3,150.3,0,0,1-21.94-9.19l-31.23,22.26a19.37,19.37,0,0,1-23.25-.64,198.16,198.16,0,0,1-32.44-32.86,19.54,19.54,0,0,1-.64-23.29l22-31.72c-1.84-3.65-3.53-7.34-5-11s-2.88-7.45-4.12-11.34l-37.65-6.63a19.59,19.59,0,0,1-15.89-16.83l0-.16a202.52,202.52,0,0,1,0-46.43,19.58,19.58,0,0,1,15.91-17l37.68-6.64a154.59,154.59,0,0,1,9.14-22.35l-22-31.73a19.55,19.55,0,0,1,.63-23.29A197.75,197.75,0,0,1,133.22,98.9a19.37,19.37,0,0,1,23.26-.65L187.7,120.5c3.57-1.85,7.18-3.54,10.77-5s7.35-2.91,11.19-4.16l6.76-39.37a18,18,0,0,1,15.45-14.76,205.18,205.18,0,0,1,48.28,0A17.94,17.94,0,0,1,295.58,71.9l6.77,39.42a149.84,149.84,0,0,1,21.94,9.19l31.24-22.26a19.36,19.36,0,0,1,23.24.64,198.43,198.43,0,0,1,32.3,32.66l.15.2a19.55,19.55,0,0,1,.64,23.29l-22,31.72c1.83,3.62,3.51,7.32,5,11s2.88,7.45,4.12,11.34l37.64,6.63a19.58,19.58,0,0,1,15.92,17h0a202.34,202.34,0,0,1,0,46.41,19.58,19.58,0,0,1-15.92,17l-37.67,6.64a154,154,0,0,1-9.14,22.34l22.06,31.74a19.57,19.57,0,0,1-.63,23.29A198.53,198.53,0,0,1,378.79,413a19.4,19.4,0,0,1-23.27.65l-31.21-22.25c-3.58,1.85-7.19,3.54-10.78,5s-7.34,2.91-11.18,4.17l-6.56,38.19A19.58,19.58,0,0,1,279,454.91l-.45,0A195.29,195.29,0,0,1,256,456.27Zm-69.33-82.52,4.14,2.31a135.44,135.44,0,0,0,27.58,11.56l4.48,1.32L231,436.29a4.49,4.49,0,0,0,3.82,3.72,179.71,179.71,0,0,0,42.36,0h.06a4.5,4.5,0,0,0,3.77-3.71L289.13,389l4.49-1.32a132.71,132.71,0,0,0,27.59-11.57l4.15-2.31,38.87,27.7a4.28,4.28,0,0,0,5.19-.14,183.28,183.28,0,0,0,30-30.37,4.7,4.7,0,0,0,.14-5.51l-27.29-39.26,2.21-4.07a138.8,138.8,0,0,0,11.43-28l1.3-4.5L434,281.39a4.52,4.52,0,0,0,3.62-3.94,187.13,187.13,0,0,0,0-43h0a4.51,4.51,0,0,0-3.62-3.94l-46.8-8.24-1.29-4.51A136.82,136.82,0,0,0,381,203.48a134.37,134.37,0,0,0-6.5-13.67l-2.21-4.07,27.28-39.26a4.69,4.69,0,0,0-.12-5.47l0,0a183.24,183.24,0,0,0-30-30.36,4.25,4.25,0,0,0-5.18-.15l-38.89,27.72-4.14-2.31a135.36,135.36,0,0,0-27.57-11.56L289.14,123,280.8,74.43a2.84,2.84,0,0,0-2.42-2.37,190.21,190.21,0,0,0-44.74,0,2.87,2.87,0,0,0-2.44,2.4L222.87,123l-4.49,1.32a130.53,130.53,0,0,0-14.11,5,133.7,133.7,0,0,0-13.48,6.57l-4.14,2.31-38.87-27.7a4.28,4.28,0,0,0-5.19.14,182.89,182.89,0,0,0-30,30.37,4.68,4.68,0,0,0-.15,5.51l27.29,39.26-2.21,4.06a138.89,138.89,0,0,0-11.43,28l-1.29,4.5L78,230.54a4.5,4.5,0,0,0-3.61,3.93,186.73,186.73,0,0,0,0,42.86v.13A4.51,4.51,0,0,0,78,281.39l46.82,8.24,1.29,4.51A137.6,137.6,0,0,0,131,308.45a139.56,139.56,0,0,0,6.5,13.68l2.21,4.06-27.28,39.25a4.7,4.7,0,0,0,.15,5.52,183.24,183.24,0,0,0,30,30.36,4.29,4.29,0,0,0,5.19.15ZM256.08,384a125.26,125.26,0,0,1-88.83-36.8c-28.33-28.24-41.71-67.52-36.7-107.78a128.36,128.36,0,0,1,36-73.87,125.29,125.29,0,0,1,178.21-.74c28.32,28.24,41.7,67.52,36.69,107.78a128.35,128.35,0,0,1-36,73.87,125.64,125.64,0,0,1-73,36.49h0A128.76,128.76,0,0,1,256.08,384Zm-.19-241a115,115,0,0,0-14.41.92c-49.42,6.31-89.81,47.25-96,97.34-4.43,35.63,7.38,70.36,32.4,95.31A110.57,110.57,0,0,0,270.52,368c49.42-6.31,89.81-47.25,96.05-97.34,4.43-35.63-7.38-70.37-32.4-95.31A110.38,110.38,0,0,0,255.89,143Z"/></g></svg>