<?xml version="1.0" encoding="utf-8"?>
<!-- Generator: Adobe Illustrator 24.2.3, SVG Export Plug-In . SVG Version: 6.00 Build 0)  -->
<svg version="1.1" id="Layer_1" xmlns="http://www.w3.org/2000/svg" xmlns:xlink="http://www.w3.org/1999/xlink" x="0px" y="0px"
	 viewBox="0 0 512 512" style="enable-background:new 0 0 512 512;" xml:space="preserve">
<style type="text/css">
	.st0{fill:#666666;}
</style>
<g>
	<path class="st0" d="M201.8,371.1h108.5c2.7,0,4.9-2.2,4.9-4.9c0-2.7-2.2-4.9-4.9-4.9H201.8c-2.7,0-4.9,2.2-4.9,4.9
		C196.8,368.9,199,371.1,201.8,371.1C201.7,371.1,201.8,371.1,201.8,371.1z"/>
	<circle class="st0" cx="218.5" cy="285.9" r="16.6"/>
	<circle class="st0" cx="295.7" cy="285.9" r="16.6"/>
	<path class="st0" d="M254,434.1c-28,0-56,0-83.9,0c-24.4,0-39.6-11.7-46.4-35.6C110,350,96.5,302.6,82.4,255.1
		C79.1,244,71.7,235.5,66,230.4c-7.2-6.6-7-10.1-5.8-14c1.7-6.2,4.6-8.6,11.2-9.3c4.2-0.5,8.3-0.7,12.5-0.7c3.2,0,6.7,0.1,10.3,0.4
		c1.1,0.1,2.2,0.1,3.2,0.1c15.1,0,27.3-7.5,35.3-21.8c18.9-33.8,37.9-67,56.4-98.8c3.2-5.5,7.1-8.3,11.5-8.3c1.6,0,3.1,0.3,4.6,0.8
		c3.2,1.1,5.8,3.5,7.1,6.7c1.4,3.9,1,8.2-1.1,11.7c-7.2,13.3-15,26.8-22.5,39.9l-0.1,0.1c-3.7,6.5-7.6,13.1-11.5,19.9
		c-1.6,2.8-3,5.5-4.5,8.4l-0.1,0.3c-0.6,1.3-1.4,2.6-2.1,4.1l-18.7,35.9h211.3l-21-36.7c-3.8-6.7-7.6-13.3-11.3-19.6l-0.2-0.3
		c-9.4-16.3-18.3-31.6-26.7-47.4c-2.6-5-4.3-10.5-4.3-14.3c0-4.3,4.4-8,8.4-8.9c1.3-0.3,2.7-0.5,4-0.5c3,0,6.8,0.8,10.5,7
		c2.9,4.9,5.8,9.9,8.7,14.8l0.7,1.2c14,23.5,28.4,47.8,40.6,72.2c11.4,22.6,28.3,34.1,50.1,34.1c3.7,0,7.4-0.3,11.1-0.9
		c0.4,0,0.7-0.1,1.1-0.1c2.3,0.1,4.6,0.4,6.9,0.8c6.2,1.1,8.5,3.2,10.2,9.1c1,3.6,1.3,7.2-5.5,14.1c-6,6-13.8,15.6-17.1,27.6
		c-10.4,37.8-20.4,76.1-30.2,113.2l-6.8,26.1c-6.8,25.8-20.9,36.7-47.1,36.8C314.8,434.1,284.4,434.1,254,434.1z M117.3,286
		c9.5,32.9,19.3,66.9,29.4,100.5c4.2,14.1,19.3,22.6,31.4,22.7c26.5,0.1,53.6,0.2,80.4,0.2c26.2,0,52.7-0.1,78.8-0.2
		c12.4-0.1,27.6-8.7,31.6-22.9c9.3-33.3,18-66,27.3-100.6l14.4-53.7H101.7L117.3,286z"/>
</g>
</svg>
