<svg id="Layer_1" data-name="Layer 1" xmlns="http://www.w3.org/2000/svg" viewBox="0 0 512 512"><defs><style>.cls-1{fill:#666;}</style></defs><path class="cls-1" d="M170,444H115c-28.33,0-49.22-17.18-54.51-44.82a27,27,0,0,1-.38-4.84q0-10.31-.09-20.62c-.09-18.31-.19-37.25.13-55.82a11.46,11.46,0,0,1,11.56-11.3A11.91,11.91,0,0,1,78,308.43c4,2.46,5.77,5.73,5.76,10.91,0,19.1,0,38.5,0,57.26v13.2c0,17.66,12.39,30,30.11,30l285.86.07a28.57,28.57,0,0,0,28.17-28.12q0-14.83,0-29.67c0-13.69,0-27.85.06-41.76.05-8.4,4.68-13.62,12.09-13.62h.35a11.65,11.65,0,0,1,11.14,9.11,31.44,31.44,0,0,1,.55,6.21c.06,20.64.06,42.31,0,66.25C452,421.6,429.56,444,396.17,444H170Z"/><path class="cls-1" d="M256.24,320.81a11.85,11.85,0,0,1-11.73-10.67c-.12-1.53-.11-3.22-.11-5V103.47s-61.13,62.79-79,80.56c-2.89,2.88-5.76,4.28-8.76,4.28a13.12,13.12,0,0,1-4.18-.75c-4.73-1.6-7.23-4.64-8.08-9.86a10.68,10.68,0,0,1,2.51-8.72,42.18,42.18,0,0,1,3.35-3.61q47.63-47.66,95.21-95.21c4-4,7.64-6,10.9-6s6.73,1.94,10.55,5.76c34.29,34.26,65.78,65.75,96.27,96.27,7.15,7.15,5.53,12.41,3.7,15.75a11.74,11.74,0,0,1-17.63,3.81,46.94,46.94,0,0,1-4.35-4c-16.75-16.72-76.73-78.48-76.73-78.48v77.25q0,63.19,0,126.4c0,9.83-4.89,12.38-9.14,13.5A10.66,10.66,0,0,1,256.24,320.81Z"/></svg>